<svg enable-background="new 0 0 512 512" height="512" viewBox="0 0 512 512" width="512" xmlns="http://www.w3.org/2000/svg"><g id="Layer_1"><g><path d="m195.509 309.695h118.535v123.04h-118.535z" fill="#f9d7aa"/><g><path d="m195.509 309.695v20.059s23.222 53.013 70.063 53.013c22.481 0 38.194-8.83 48.473-18.013v-55.059z" fill="#e8ac6b"/></g><g fill="#f9d7aa"><path d="m352.246 223.984 8.372-26.782s14.73-4.089 22.499 11.756c7.769 15.844-12.56 48.4-30.098 51.135-4.862-12.394-.773-36.109-.773-36.109z"/><path d="m156.346 223.984-8.372-26.782s-14.73-4.089-22.499 11.756 12.56 48.4 30.098 51.135c4.862-12.394.773-36.109.773-36.109z"/><path d="m360.031 224.057c.037-1.119.056-2.238.056-3.357 0-69.551 20.296-148.022-103.17-149.175-.568-.011-2.758-.027-2.764-.027s-2.197.016-2.765.027c-123.464 1.153-103.168 79.624-103.168 149.175 0 1.119.02 2.238.056 3.357s-.124 51.76 7.522 64.7 52.936 72.078 95.874 72.078c.04-.04 4.999-.042 5.041 0 42.937 0 88.227-59.138 95.874-72.078 7.646-12.94 7.522-64.7 7.522-64.7z"/></g><path d="m135.792 198.375c7.399-1.638 14.601-1.673 22.163 11.267.504-19.998-3.006-35.291 4.631-39.996 5.284 5.882 5.284 12.94 5.284 12.94 9.411-15.293 25.801-27.056 27.017-54.113 8.274 15.293 38.226 58.818 118.535 50.584-6.741-8.235-9.366-17.645-9.366-17.645s13.991 12.907 35.563 15.293c-1.176-4.705 0-16.469 0-16.469s14.448 10.474 17.111 49.407c3.889-12.441 7.995-14.836 13.588-12.166 2.827-10.185 22.305-91.864-13.053-125.979-37.361-36.046-141.164-62.857-184.689 0-23.529 2.862-47.687 21.501-36.784 126.877z" fill="#240703"/><path d="m437.711 459.153c-2.206-54.962-44.5-67.657-69.895-70.307-11.019-1.15-55.914-.409-55.914-.409-1.075 18.4-22.94 36.021-57.125 36.682-34.185-.661-58.992-22.438-58.992-36.682 0 0-43.027-.741-54.046.409-25.395 2.65-67.69 15.344-69.896 70.307-1.898 13.707 0 33.287 0 33.287s61.815 18.919 178.645 19.55c.87.013 7.708.013 8.578 0 116.831-.631 178.645-19.55 178.645-19.55s1.898-19.581 0-33.287z" fill="#f7f7f7"/><g><path d="m311.902 388.405c-1.075 18.4-22.94 28.269-57.125 28.93-34.185-.661-58.992-14.686-58.992-28.93 0 0-5.5-.094-13.058-.164l48.042 123.428c6.391.152 12.959.252 19.719.289.87.013 7.708.013 8.578 0 6.343-.034 12.513-.126 18.53-.262l48.584-123.461c-8.211.07-14.278.17-14.278.17z" fill="#8ac1d6"/></g><path d="m254.465 430.436-19.372 22.104 9.764 59.432h19.216l9.765-59.432z" fill="#091e26"/><path d="m271.111 421.449c0-10.3-9.693-13.852-16.641-13.865l-.001-.001c-.006 0-.013.001-.02.001-.006 0-.013-.001-.02-.001l-.001.001c-6.948.014-16.641 3.565-16.641 13.865 0 9.217 9.009 17.08 15.026 18.659.415.192 2.858.192 3.273 0 6.016-1.578 15.025-9.441 15.025-18.659z" fill="#091e26"/><path d="m254.465 407.338 59.58-39.673 13.276 18.384-36.428 51.569z" fill="#b3edff"/><path d="m254.465 407.338-58.956-39.673-13.899 18.384 36.428 51.569z" fill="#b3edff"/><path d="m164.27 388.235h-4.287l3.574 52.974 20.675-.306-16.703 16.194 46.133 54.061 6.013.257-43.726-53.503 18.196-20.294-25.529-3.878z" fill="#ccc"/><path d="m181.61 386.049-19.025 1.393s1.432 19.673 2.951 51.147h24.317l-18.858 18.464 45.395 54.2 14.83.504 16.904.177z" fill="#f7f7f7"/><path d="m345.139 388.235h4.288l-3.575 52.974-20.675-.306 16.703 16.194-46.132 54.061-6.013.257 43.726-53.503-18.197-20.294 25.53-3.878z" fill="#ccc"/><path d="m327.8 386.049 19.025 1.393s-1.432 19.673-2.951 51.147c-15.14 0-24.317 0-24.317 0l18.858 18.464-45.395 54.2-14.83.504-16.904.177z" fill="#f7f7f7"/><g><path d="m190.498 450.037c-.807 0-1.607-.336-2.175-.998-23.545-27.346-25.044-60.647-25.092-62.049-.06-1.585 1.174-2.916 2.759-2.975 1.686-.142 2.916 1.174 2.975 2.759.015.325 1.518 32.744 23.709 58.52 1.035 1.2.901 3.013-.303 4.048-.542.467-1.207.695-1.873.695z" fill="#172526"/><path d="m341.839 417.502c-.624 0-1.256-.153-1.839-.475-1.854-1.017-2.531-3.345-1.51-5.196 3.97-7.225 4.909-17 5.294-23.287.127-2.108 1.888-3.682 4.056-3.585 2.108.131 3.715 1.944 3.585 4.056-.06.991-.614 16.297-6.228 26.502-.696 1.268-2.008 1.985-3.358 1.985z" fill="#2e4241"/><path d="m367.201 484.485c-.632 0-1.263-.206-1.794-.628-1.237-.991-1.439-2.8-.449-4.037 1.42-3.129 5.435-38.272-5.308-52.45-4.949-6.53-11.49-10.384-18.921-11.143-8.276-.852-16.888 2.243-24.266 8.698-14.51 12.694-22.498 39.984-22.577 40.261-.437 1.518-2.026 2.396-3.555 1.962-1.521-.437-2.4-2.03-1.962-3.555.34-1.185 8.549-29.197 24.311-42.989 8.593-7.517 18.749-11.098 28.632-10.089 9.057.923 16.981 5.554 22.913 13.385 12.675 16.731 7.973 56.061 5.218 59.507-.568.708-1.401 1.078-2.242 1.078z" fill="#172526"/><circle cx="289.453" cy="467.978" fill="#697585" r="7.894"/><circle cx="366.324" cy="485.521" fill="#697585" r="7.894"/><path d="m360.203 428.331c-1.286 0-2.568-.516-3.51-1.533-13.438-14.522-28.527-6.941-29.167-6.609-2.329 1.204-5.222.314-6.448-2.015-1.226-2.325-.355-5.199 1.966-6.44 7.577-4.044 25.829-7.468 40.668 8.56 1.798 1.94 1.678 4.968-.258 6.762-.922.852-2.088 1.275-3.251 1.275z" fill="#2e4241"/><circle cx="196.24" cy="457.692" fill="#172526" r="23.922"/><circle cx="196.24" cy="457.692" fill="#697585" r="14.831"/></g><g><path d="m133.121 135.774h244.805v24.07h-244.805z" fill="#fefefe"/><g><circle cx="254.154" cy="149.221" fill="#d8d8d8" r="44.245"/><circle cx="254.154" cy="149.221" fill="#e9e9eb" r="36.714"/><circle cx="254.154" cy="149.221" fill="#d8d8d8" r="12.238"/></g></g></g></g></svg>