<svg enable-background="new 0 0 512 512" height="512" viewBox="0 0 512 512" width="512" xmlns="http://www.w3.org/2000/svg"><g id="Layer_1"><g><path d="m417.06 169.299c0-6.352-3.823-11.783-9.238-14.031 1.528-1.498 2.485-3.603 2.485-5.941 0-2.3-.924-4.377-2.409-5.87 3.844-1.912 6.5-5.936 6.5-10.606 0-4.152-2.099-7.795-5.264-9.898 4.71-2.533 7.927-7.583 7.927-13.409 0-8.364-6.621-15.144-14.788-15.144-2.698 0-5.219.752-7.397 2.044.114-.665.184-1.346.184-2.044 0-6.124-4.557-11.155-10.387-11.739 2.534-2.718 4.1-6.393 4.1-10.448 0-8.364-6.621-15.144-14.788-15.144-3.132 0-6.031 1.003-8.422 2.704-2.085-3.03-5.522-5.015-9.417-5.015-1.753 0-3.409.413-4.896 1.13.792-1.992 1.237-4.166 1.237-6.449 0-9.453-7.483-17.117-16.714-17.117-5.698 0-10.723 2.925-13.74 7.383-1.381-4.931-5.807-8.542-11.066-8.542-1.996 0-3.873.521-5.51 1.436-2.106-2.346-5.118-3.826-8.475-3.826-.941 0-1.851.128-2.727.346.048-.603.09-1.209.09-1.825 0-12.23-9.682-22.145-21.625-22.145-10.614 0-19.425 7.838-21.258 18.166-2.948-4.861-8.194-8.108-14.193-8.108-9.231 0-16.714 7.663-16.714 17.116 0 .449.032.889.066 1.329-1.951-1.554-4.396-2.488-7.059-2.488-5.259 0-9.685 3.612-11.066 8.542-3.017-4.458-8.042-7.383-13.74-7.383-9.231 0-16.714 7.663-16.714 17.117 0 2.283.445 4.458 1.237 6.449-1.488-.718-3.143-1.13-4.896-1.13-3.895 0-7.332 1.985-9.417 5.015-2.391-1.701-5.291-2.704-8.422-2.704-8.167 0-14.788 6.78-14.788 15.144 0 4.055 1.566 7.73 4.1 10.448-5.83.583-10.387 5.615-10.387 11.739 0 .699.071 1.379.184 2.044-2.178-1.292-4.699-2.044-7.397-2.044-8.167 0-14.788 6.78-14.788 15.144 0 5.826 3.217 10.876 7.927 13.409-3.165 2.103-5.264 5.746-5.264 9.898 0 4.67 2.656 8.694 6.5 10.606-1.485 1.493-2.409 3.57-2.409 5.87 0 2.338.956 4.443 2.485 5.941-5.415 2.249-9.238 7.679-9.238 14.031 0 5.906 3.309 11.01 8.126 13.507-2.584 2.727-4.182 6.44-4.182 10.54 0 8.364 6.621 15.144 14.788 15.144.65 0 1.286-.058 1.914-.141-1.191 1.435-1.914 3.292-1.914 5.323 0 4.544 3.597 8.228 8.035 8.228 3.215 0 5.982-1.939 7.266-4.733h241.526c1.284 2.794 4.051 4.733 7.266 4.733 4.438 0 8.035-3.684 8.035-8.228 0-2.031-.722-3.888-1.914-5.323.628.083 1.264.141 1.914.141 8.167 0 14.788-6.78 14.788-15.144 0-4.1-1.598-7.813-4.182-10.54 4.816-2.498 8.125-7.602 8.125-13.508z" fill="#240703"/><path d="m195.302 318.122h119.23v123.761h-119.23z" fill="#974216"/><g><path d="m265.521 384.311c22.712 0 38.614-10.169 49.011-20.702v-45.487h-119.23v20.177c0-.001 23.103 46.012 70.219 46.012z" fill="#661c05"/></g><g fill="#a34a17"><path d="m261.48 78.38c-.577-.011-2.805-.027-2.811-.027s-2.234.016-2.812.027c-125.562 1.173-104.921 80.976-104.921 151.708 0 71.257 73.772 142.514 107.715 142.514h.035c33.943 0 107.715-71.257 107.715-142.514.001-70.731 20.641-150.535-104.921-151.708z"/><path d="m358.427 233.428 8.514-27.237s14.98-4.158 22.881 11.955-12.774 49.222-30.609 52.004c-4.944-12.604-.786-36.722-.786-36.722z"/><path d="m159.2 233.428-8.514-27.237s-14.98-4.158-22.881 11.955 12.774 49.222 30.609 52.004c4.945-12.604.786-36.722.786-36.722z"/></g><path d="m372.697 200.794c0-34.709 21.755-128.581-113.614-128.581s-114.582 108.829-114.582 128.581c0 0 10.825 5.439 12.028 33.388 3.378 4.306 4.307 0 4.307 0s-.738-59.423 2.417-81.605 20.191-50.958 48.119-56.102c29.976-5.522 43.318 8.677 47.296 17.354 8.711-12.621 23.222-22.928 55.863-15.777 0 0 41.743 7.289 42.26 56.102.516 29.093 1.005 48.131 0 77.606 4.403 6.616 5.644 0 5.644 0s.014-28.801 10.262-30.966z" fill="#240703"/><path d="m440.643 459.311c-2.247-55.992-45.334-68.925-71.205-71.624-7.104-.742-28.021-.711-42.429-.589l.013-.034c-8.365.071-14.546.173-14.546.173l-58.81 51.651-59.484-51.651s-5.603-.096-13.303-.167l.013.034c-13.86-.127-34.551-.17-41.769.583-25.871 2.699-68.958 15.632-71.205 71.624-1.933 13.963 0 33.91 0 33.91s62.973 18.125 181.993 18.768c.886.014 7.852.014 8.738 0 119.02-.643 181.993-18.768 181.993-18.768s1.934-19.946.001-33.91z" fill="#7dd5de"/><g><g><g><path d="m207.649 250.559c-12.168 4.078-46.948 30.236-46.95 30.237 9.358 27.947 36.558 88.668 96.268 88.668 59.87 0 89.318-59.394 98.675-87.24-13.027-11.997-28.456-21.926-47.259-31.042-35.41-12.313-88.566-4.701-100.734-.623z" fill="#f7f7f7"/></g></g><g fill="#f7f7f7"><path d="m360.902 218.389 1.803 2.224s-5.091 30.363-13.305 57.141c-5.191-2.459-6.972-5.423-6.972-5.423s13.83-49.845 18.474-53.942z"/><path d="m155.734 218.389-1.803 2.224s9.071 30.363 17.285 57.141c5.191-2.459 6.972-5.423 6.972-5.423s-17.81-49.845-22.454-53.942z"/></g></g></g></g></svg>