<svg enable-background="new 0 0 512 512" height="512" viewBox="0 0 512 512" width="512" xmlns="http://www.w3.org/2000/svg"><g id="Layer_1"><g><path d="m196.988 306.544h117.248v121.704h-117.248z" fill="#f3c690"/><g><path d="m266.04 371.633c22.334 0 37.972-10 48.196-20.358v-44.731h-117.248v19.841s22.72 45.248 69.052 45.248z" fill="#eab57a"/></g><g fill="#f3c690"><path d="m262.066 70.788c-.568-.011-2.759-.027-2.764-.027s-2.197.016-2.765.027c-123.474 1.153-103.177 79.63-103.177 149.186 0 70.072 72.546 140.145 105.924 140.145h.034c33.379 0 105.924-70.073 105.924-140.145.001-69.556 20.298-148.032-103.176-149.186z"/><path d="m357.401 223.258 8.372-26.784s14.731-4.089 22.501 11.756c7.769 15.846-12.561 48.404-30.1 51.139-4.862-12.394-.773-36.111-.773-36.111z"/><path d="m161.487 223.258-8.372-26.784s-14.731-4.089-22.501 11.756c-7.769 15.846 12.561 48.404 30.1 51.139 4.862-12.394.773-36.111.773-36.111z"/></g><path d="m436.947 459.726c-2.182-54.365-44.017-66.922-69.136-69.543-6.898-.72-27.207-.69-41.196-.572l.013-.033c-8.122.069-14.123.168-14.123.168-1.063 18.2-22.691 20.379-56.505 21.032-33.814-.654-58.351-6.943-58.351-21.032 0 0-5.44-.093-12.916-.162l.013.033c-13.457-.123-33.547-.166-40.556.566-25.119 2.621-66.954 15.178-69.136 69.543-1.877 13.558 0 32.926 0 32.926s61.143 18.714 176.705 19.338c.86.013 7.624.013 8.484 0 115.562-.624 176.705-19.338 176.705-19.338s1.876-19.368-.001-32.926z" fill="#65afba"/><g fill="#559da5"><path d="m255.692 410.779 58.544-39.243 13.52 18.185-36.032 51.009z"/><path d="m255.692 410.779-58.704-39.243-13.361 18.185 36.033 51.009z"/></g><path d="m370.27 196.041c13.724-66.941 21.758-171.4-111.361-171.4s-123.923 110.818-113.041 171.4c0 0 10.969-1.83 16.451 16.296 2.379-5.921-5.378-56.343 10.912-89.699s34.908-30.253 40.338-27.926c6.982 6.206 10.084 24.823 35.683 20.945s43.492-30.973 78.503-16.29c29.652 14.248 34.88 71.651 33.059 112.971 3.61-7.551 5.441-15.929 9.456-16.297z" fill="#240703"/><g><path d="m360.812 212.337c-6.555 10.129-17.571 26.361-27.683 47.771-3.224-1.443-5.373-1.478-5.373-1.478s23.656-44.226 32.592-55.911c4.1-3.626 5.46-1.879 5.46-1.879-2.032 3.619-4.996 11.497-4.996 11.497z" fill="#f7f7f7"/><path d="m162.004 212.337c6.555 10.129 17.571 26.361 27.683 47.771 3.224-1.443 5.373-1.478 5.373-1.478s-23.656-44.226-32.592-55.911c-4.1-3.626-5.46-1.879-5.46-1.879 2.032 3.619 4.996 11.497 4.996 11.497z" fill="#f7f7f7"/><g><path d="m210.801 244.689c-11.966 4.01-46.168 29.733-46.169 29.734 9.202 27.482 35.95 87.194 94.667 87.194 58.874 0 85.756-60.028 94.957-87.411-12.811-11.797-25.906-19.94-44.396-28.904-34.821-12.109-87.093-4.624-99.059-.613z" fill="#f7f7f7"/></g></g><path d="m376.732 87.352c-6.388-51.907-64.212-63.187-119.369-62.696-55.157-.492-112.981 10.789-119.37 62.696-2.418 37.073 0 72.534 0 72.534s32.551-16.472 119.37-16.771c86.818.299 119.369 16.771 119.369 16.771s2.418-35.461 0-72.534z" fill="#559da5"/><g><path d="m337.961 446.687h9.103v10.568h-9.103z" fill="#f4f4f4"/><path d="m377.214 484.825c0 4.06-3.292 7.352-7.352 7.352h-54.697c-4.06 0-7.352-3.292-7.352-7.352v-23.506c0-4.06 3.292-7.352 7.352-7.352h54.697c4.06 0 7.352 3.292 7.352 7.352z" fill="#fff"/><g fill="#bfbfbf"><path d="m315.666 461.85h16.149v22.056h-16.149z"/><path d="m334.838 461.85h33.057v4.738h-33.057z"/><path d="m334.838 470.509h33.057v4.738h-33.057z"/><path d="m334.838 479.168h21.612v4.738h-21.612z"/></g></g></g></g></svg>