<svg enable-background="new 0 0 512 512" height="512" viewBox="0 0 512 512" width="512" xmlns="http://www.w3.org/2000/svg"><g id="Layer_1"><g><path d="m354.075 222.237 8.251-26.396s14.518-4.03 22.175 11.586-12.379 47.703-29.664 50.398c-4.792-12.215-.762-35.588-.762-35.588z" fill="#a34a17"/><path d="m160.998 222.237-8.251-26.396s-14.518-4.03-22.175 11.586 12.379 47.703 29.664 50.398c4.792-12.215.762-35.588.762-35.588z" fill="#a34a17"/><path d="m199.597 306.712h116.827v121.267h-116.827z" fill="#974216"/><g><path d="m199.597 306.712v19.77s22.887 52.249 69.053 52.249c22.157 0 37.643-8.703 47.774-17.753v-54.266z" fill="#661c05"/></g><path d="m361.748 222.308c.036-1.103.055-2.205.055-3.308 0-68.549 20.003-145.889-101.683-147.025-.559-.011-2.719-.027-2.724-.027-.006 0-2.165.016-2.725.027-121.685 1.136-101.682 78.477-101.682 147.025 0 1.103.019 2.206.055 3.308s-.122 51.014 7.414 63.768 52.174 71.039 94.492 71.039c.039-.039 4.927-.041 4.969 0 42.319 0 86.956-58.286 94.492-71.039s7.414-63.768 7.414-63.768z" fill="#a34a17"/><path d="m438.309 459.914c-2.174-54.17-43.859-66.682-68.888-69.293-10.86-1.133-55.108-.403-55.108-.403-1.059 18.135-22.609 35.502-56.302 36.153-33.693-.651-58.142-22.115-58.142-36.153 0 0-42.407-.731-53.268.403-25.029 2.612-66.714 15.123-68.888 69.293-1.871 13.509 0 32.807 0 32.807s60.924 18.647 176.071 19.269c.857.013 7.597.013 8.454 0 115.147-.622 176.071-19.269 176.071-19.269s1.87-19.298 0-32.807z" fill="#f7f7f7"/><g><path d="m314.313 390.186c-1.059 18.135-22.609 27.862-56.302 28.513-33.693-.651-58.142-14.474-58.142-28.513 0 0-5.421-.093-12.87-.161l47.35 121.649c6.299.149 12.772.248 19.435.284.857.013 7.597.013 8.454 0 6.251-.034 12.333-.124 18.263-.258l47.884-121.681c-8.093.068-14.072.167-14.072.167z" fill="#8ac1d6"/></g><path d="m257.704 431.612-19.093 21.785 9.623 58.575h18.939l9.624-58.575z" fill="#091e26"/><path d="m274.109 422.754c0-10.152-9.554-13.652-16.401-13.665l-.001-.001c-.006 0-.013.001-.019.001s-.013-.001-.019-.001l-.001.001c-6.848.013-16.401 3.514-16.401 13.665 0 9.085 8.879 16.834 14.809 18.39.409.189 2.816.189 3.225 0 5.929-1.555 14.808-9.305 14.808-18.39z" fill="#091e26"/><path d="m257.704 408.847 58.72-39.102 13.085 18.12-35.902 50.825z" fill="#b3edff"/><path d="m257.704 408.847-58.107-39.102-13.699 18.12 35.903 50.825z" fill="#b3edff"/><path d="m372.027 195.191c13.675-66.7 21.68-170.785-110.961-170.785s-123.478 110.421-112.635 170.785c0 0 10.929-1.824 16.392 16.238 2.371-5.9-5.358-56.141 10.873-89.378s34.782-30.145 40.193-27.826c6.956 6.184 10.048 24.734 35.555 20.869s43.336-30.862 78.221-16.232c29.546 14.197 34.755 71.394 32.94 112.566 3.597-7.523 5.421-15.871 9.422-16.237z" fill="#240703"/><path d="m168.808 390.019h-4.225l3.523 52.21 20.377-.301-16.463 15.96 45.468 53.282 5.927.254-43.096-52.733 17.934-20.001-25.162-3.822z" fill="#ccc"/><path d="m185.898 387.865-18.751 1.373s1.412 19.39 2.909 50.41h23.967l-18.586 18.198 44.741 53.419 14.616.497 16.661.174z" fill="#f7f7f7"/><path d="m347.071 390.019h4.225l-3.522 52.21-20.377-.301 16.462 15.96-45.468 53.282-5.926.254 43.096-52.733-17.935-20.001 25.162-3.822z" fill="#ccc"/><path d="m329.981 387.865 18.751 1.373s-1.412 19.39-2.909 50.41c-14.922 0-23.967 0-23.967 0l18.586 18.198-44.741 53.419-14.616.497-16.661.174z" fill="#f7f7f7"/><g><path d="m191.46 450.93c-.796 0-1.584-.332-2.144-.984-23.206-26.952-24.683-59.773-24.731-61.154-.059-1.562 1.157-2.874 2.719-2.932 1.661-.14 2.874 1.157 2.932 2.719.015.321 1.496 32.272 23.368 57.677 1.02 1.183.888 2.969-.298 3.99-.535.459-1.19.684-1.846.684z" fill="#172526"/><path d="m340.62 418.864c-.615 0-1.238-.151-1.813-.468-1.827-1.002-2.494-3.297-1.488-5.121 3.912-7.121 4.838-16.755 5.217-22.952.125-2.078 1.86-3.629 3.997-3.533 2.078.129 3.662 1.916 3.533 3.997-.059.976-.605 16.062-6.138 26.12-.685 1.25-1.978 1.957-3.308 1.957z" fill="#2e4241"/><path d="m365.616 484.881c-.623 0-1.245-.203-1.768-.619-1.219-.976-1.418-2.759-.442-3.979 1.4-3.083 5.357-37.721-5.231-51.694-4.878-6.436-11.325-10.234-18.648-10.982-8.156-.84-16.644 2.21-23.917 8.573-14.301 12.511-22.174 39.408-22.251 39.68-.431 1.496-1.997 2.361-3.503 1.934-1.499-.431-2.365-2-1.934-3.503.335-1.168 8.425-28.776 23.961-42.37 8.47-7.409 18.479-10.938 28.219-9.943 8.926.91 16.736 5.474 22.583 13.192 12.492 16.49 7.858 55.253 5.143 58.649-.562.698-1.383 1.062-2.212 1.062z" fill="#172526"/><circle cx="288.989" cy="468.613" fill="#697585" r="7.781"/><circle cx="364.751" cy="485.903" fill="#697585" r="7.781"/><path d="m358.719 429.537c-1.267 0-2.531-.508-3.459-1.51-13.244-14.312-28.116-6.841-28.746-6.513-2.295 1.186-5.147.309-6.355-1.986-1.208-2.291-.35-5.124 1.938-6.348 7.467-3.986 25.456-7.361 40.082 8.436 1.772 1.912 1.654 4.896-.254 6.664-.91.84-2.06 1.257-3.206 1.257z" fill="#2e4241"/><circle cx="197.119" cy="458.474" fill="#172526" r="23.578"/><circle cx="197.119" cy="458.474" fill="#697585" r="14.617"/></g></g></g></svg>