<svg enable-background="new 0 0 512 512" height="512" viewBox="0 0 512 512" width="512" xmlns="http://www.w3.org/2000/svg"><g id="Layer_1"><g><g fill="#f9d7aa"><path d="m352.785 220.927 8.277-26.479s14.564-4.043 22.245 11.623-12.418 47.853-29.757 50.557c-4.807-12.254-.765-35.701-.765-35.701z"/><path d="m159.1 220.927-8.277-26.479s-14.564-4.043-22.245 11.623 12.418 47.853 29.757 50.557c4.808-12.254.765-35.701.765-35.701z"/><path d="m197.82 305.669h117.195v121.649h-117.195z"/></g><g><path d="m197.204 305.669v19.832s22.96 52.414 69.271 52.414c22.227 0 37.762-8.73 47.925-17.809v-54.437z" fill="#e8ac6b"/></g><path d="m360.482 220.999c.036-1.106.056-2.212.056-3.319 0-68.765 20.066-146.349-102.004-147.489-.561-.011-2.727-.027-2.733-.027s-2.172.016-2.733.027c-122.07 1.14-102.003 78.724-102.003 147.489 0 1.106.019 2.213.055 3.319s-.123 51.175 7.437 63.969 52.338 71.263 94.79 71.263c.039-.039 4.943-.041 4.984 0 42.452 0 87.23-58.469 94.79-71.263s7.437-63.969 7.437-63.969z" fill="#f9d7aa"/><path d="m438.963 459.222c-2.203-54.89-44.441-67.567-69.803-70.214-11.004-1.148-55.84-.408-55.84-.408-1.073 18.376-22.91 35.974-57.05 36.634-34.14-.66-58.914-22.409-58.914-36.634 0 0-42.971-.74-53.975.408-25.362 2.646-67.6 15.324-69.803 70.214-1.895 13.688 0 33.243 0 33.243s61.733 18.894 178.41 19.525c.869.013 7.698.013 8.566 0 116.677-.63 178.41-19.525 178.41-19.525s1.894-19.554-.001-33.243z" fill="#15a8c2"/><path d="m141.061 194.768c5.132-1.731 12.983-1.446 15.623 18.431 6.496-13.126 6.108-59.649 13.474-81.747 5.815-17.446 27.662-45.36 51.175-40.707 13.88 2.746 12.017 17.446 35.085 17.446s26.558-17.742 41.677-17.594 39.544 14.105 41.87 45.508 11.229 77.095 11.229 77.095-1.497-22.786 16.898-19.219c4.439-20.858 13.654-84.38-13.589-114.866-24.424-27.332-52.534-32.566-98.086-32.566s-94.583 9.667-112.626 60.48c-12.596 35.471-2.73 87.739-2.73 87.739z" fill="#240703"/><g><path d="m254.104 438.641c50.653 0 71.92-26.995 73.327-50.264-8.33.07-14.511.171-14.511.171-1.074 18.376-22.91 35.974-57.05 36.634-34.14-.66-58.914-22.408-58.914-36.634 0 0-6.585-.113-15.249-.182.038 17.313 19.985 50.275 72.397 50.275z" fill="#53939c"/></g><g><g><path d="m204.875 239.356c-11.96 4.008-46.147 29.72-46.148 29.721 9.198 27.47 35.934 87.155 94.625 87.155 58.848 0 87.794-58.38 96.991-85.751-12.805-11.792-27.97-21.552-46.452-30.513-34.806-12.103-87.055-4.621-99.016-.612z" fill="#f7f7f7"/></g></g><path d="m374.635 100.149c-6.386-51.883-64.183-63.159-119.316-62.668-55.133-.491-112.931 10.784-119.316 62.668-2.417 37.056 0 72.501 0 72.501s32.537-16.465 119.316-16.763c86.779.299 119.316 16.763 119.316 16.763s2.417-35.445 0-72.501z" fill="#15a8c2"/><path d="m157.401 205.142-1.773 2.186s7.68 37.287 11.171 59.037c5.102-2.417 6.713-5.908 6.713-5.908s-11.547-51.288-16.111-55.315z" fill="#f7f7f7"/><path d="m350.027 205.142 1.772 2.186s-7.68 37.287-11.171 59.037c-5.102-2.417-6.713-5.908-6.713-5.908s11.547-51.288 16.112-55.315z" fill="#f7f7f7"/></g></g></svg>