<svg enable-background="new 0 0 512 512" height="512" viewBox="0 0 512 512" width="512" xmlns="http://www.w3.org/2000/svg"><g id="Layer_1"><g><path d="m194.074 304.748h116.923v121.366h-116.923z" fill="#f9d7aa"/><g><path d="m262.934 369.656c22.272 0 37.866-9.972 48.063-20.302v-44.607h-116.923v19.786c0 .001 22.656 45.123 68.86 45.123z" fill="#e8ac6b"/></g><path d="m258.971 69.646c-.566-.011-2.751-.027-2.757-.027s-2.191.016-2.757.027c-123.132 1.15-102.891 79.409-102.891 148.772 0 69.878 72.344 139.756 105.631 139.756h.034c33.286 0 105.631-69.878 105.631-139.756 0-69.363 20.241-147.622-102.891-148.772z" fill="#f9d7aa"/><path d="m432.981 457.579c-2.176-54.214-43.895-66.736-68.944-69.35-6.879-.718-27.132-.689-41.082-.57l.013-.033c-8.1.068-14.084.167-14.084.167-1.06 18.15-22.628 27.885-56.348 28.536-33.72-.652-58.19-14.487-58.19-28.536 0 0-5.425-.093-12.881-.162l.013.033c-13.42-.123-33.454-.165-40.443.565-25.05 2.614-66.769 15.136-68.945 69.35-1.872 13.52 0 32.834 0 32.834s60.974 18.662 176.215 19.284c.858.013 7.603.013 8.461 0 115.242-.623 176.215-19.284 176.215-19.284s1.872-19.314 0-32.834z" fill="#b3edff"/><path d="m252.228 431.574-19.109 21.802 9.632 58.624h18.954l9.631-58.624z" fill="#091e26"/><path d="m268.647 422.709c0-10.16-9.562-13.663-16.415-13.677l-.001-.001c-.006 0-.013.001-.019.001s-.013-.001-.019-.001l-.001.001c-6.853.013-16.415 3.517-16.415 13.677 0 9.092 8.886 16.848 14.821 18.405.409.189 2.819.189 3.228 0 5.934-1.557 14.821-9.313 14.821-18.405z" fill="#091e26"/><path d="m252.228 408.79 58.846-39.134 13.019 18.135-35.933 50.867z" fill="#d2f7ff"/><path d="m252.228 408.79-58.077-39.134-13.788 18.135 35.932 50.867z" fill="#d2f7ff"/><path d="m143.23 194.511c8.511 5.013 14.19 16.545 15.441 27.183 6.324 3.64 6.324-25.369 6.324-38.133s5.802-18.566 10.443-29.009 1.299-42.933 23.276-53.377 41.569 2.321 53.82 10.443c12.251 8.123 26.508-2.321 30.984-6.962 4.475-4.641 18.654-16.245 41.734-2.321s20.759 39.452 18.438 48.735 10.676 51.709 7.078 62.986c4.991 2.14 5.19-18.719 11.622-19.073 6.431-.354 14.95-26.023 14.95-36.129s13.732-26.35 5.706-40.275 2.518-63.82-51.426-59.81c-14.052-12.764-14.619-27.218-35.505-27.218-19.726 0-37.267 12.764-43.581 12.764s-29.522-13.924-42.286-6.962-26.123 15.085-29.887 15.085-33.371-6.962-37.133 30.169c-7.243 11.604-26.847 6.962-21.687 46.414 5.163 39.454 23.131 57.874 21.689 65.49z" fill="#240703"/><g><path d="m226.625 234.493h-35.391c-11.42 0-20.711-9.291-20.711-20.711v-20.887c0-11.42 9.291-20.711 20.711-20.711h35.391c11.42 0 20.711 9.291 20.711 20.711v20.887c0 11.42-9.291 20.711-20.711 20.711zm-35.39-51.057c-5.215 0-9.459 4.244-9.459 9.459v20.887c0 5.216 4.244 9.459 9.459 9.459h35.391c5.215 0 9.459-4.243 9.459-9.459v-20.887c0-5.215-4.244-9.459-9.459-9.459z"/><path d="m321.194 234.493h-35.391c-11.42 0-20.711-9.291-20.711-20.711v-20.887c0-11.42 9.291-20.711 20.711-20.711h35.391c11.42 0 20.711 9.291 20.711 20.711v20.887c0 11.42-9.291 20.711-20.711 20.711zm-35.39-51.057c-5.215 0-9.459 4.244-9.459 9.459v20.887c0 5.216 4.244 9.459 9.459 9.459h35.391c5.215 0 9.459-4.243 9.459-9.459v-20.887c0-5.215-4.244-9.459-9.459-9.459z"/><path d="m270.72 200.397c-.412 0-.832-.064-1.245-.199-14.839-4.83-26.058-.179-26.171-.132-2.034.87-4.397-.069-5.273-2.1-.877-2.03.043-4.384 2.07-5.27.562-.248 13.983-5.962 31.863-.14 2.11.688 3.264 2.954 2.577 5.065-.554 1.697-2.129 2.776-3.821 2.776z"/><path d="m144.81 197.987c-1.997 0-3.729-1.487-3.982-3.519-.275-2.202 1.286-4.212 3.489-4.486l31.335-3.916c2.209-.272 4.212 1.288 4.485 3.489.275 2.201-1.286 4.21-3.489 4.485l-31.335 3.916c-.168.022-.337.031-.503.031z"/><path d="m367.619 197.987c-.166 0-.334-.009-.504-.031l-31.334-3.916c-2.202-.275-3.764-2.284-3.489-4.485.275-2.202 2.271-3.763 4.485-3.489l31.335 3.916c2.201.275 3.764 2.284 3.488 4.486-.253 2.033-1.984 3.519-3.981 3.519z"/></g><path d="m354.042 221.693 8.349-26.71s14.69-4.078 22.438 11.724-12.527 48.27-30.016 50.997c-4.849-12.36-.771-36.011-.771-36.011z" fill="#f9d7aa"/><path d="m158.671 221.693-8.349-26.71s-14.69-4.078-22.438 11.724 12.527 48.27 30.016 50.997c4.849-12.36.771-36.011.771-36.011z" fill="#f9d7aa"/><g><path d="m188.459 449.83c-.796 0-1.585-.332-2.146-.984-23.225-26.974-24.703-59.822-24.751-61.205-.059-1.563 1.158-2.876 2.721-2.935 1.663-.14 2.876 1.158 2.935 2.721.015.321 1.497 32.298 23.387 57.724 1.021 1.184.889 2.972-.299 3.993-.535.461-1.191.686-1.847.686z" fill="#172526"/><path d="m337.741 417.739c-.616 0-1.239-.151-1.814-.468-1.829-1.003-2.496-3.3-1.49-5.125 3.916-7.127 4.842-16.769 5.222-22.97.125-2.079 1.862-3.632 4-3.536 2.079.129 3.665 1.917 3.536 4-.059.977-.606 16.076-6.143 26.141-.686 1.25-1.98 1.958-3.311 1.958z" fill="#2e4241"/><path d="m362.757 483.81c-.623 0-1.246-.203-1.77-.619-1.22-.977-1.419-2.762-.442-3.982 1.401-3.086 5.361-37.751-5.236-51.736-4.882-6.441-11.334-10.243-18.664-10.991-8.163-.841-16.658 2.212-23.936 8.58-14.313 12.521-22.192 39.44-22.27 39.713-.431 1.497-1.998 2.363-3.506 1.936-1.501-.431-2.367-2.002-1.936-3.506.336-1.169 8.432-28.799 23.98-42.404 8.476-7.415 18.494-10.947 28.243-9.951 8.934.911 16.75 5.479 22.601 13.203 12.503 16.503 7.864 55.298 5.147 58.697-.559.695-1.381 1.06-2.211 1.06z" fill="#172526"/><circle cx="286.067" cy="467.528" fill="#697585" r="7.787"/><circle cx="361.892" cy="484.833" fill="#697585" r="7.787"/><path d="m355.855 428.42c-1.268 0-2.533-.509-3.462-1.512-13.255-14.324-28.139-6.847-28.77-6.519-2.297 1.187-5.151.31-6.36-1.987-1.209-2.293-.35-5.129 1.939-6.353 7.474-3.989 25.477-7.367 40.115 8.443 1.773 1.914 1.655 4.9-.254 6.67-.911.841-2.061 1.258-3.208 1.258z" fill="#2e4241"/><circle cx="194.122" cy="457.381" fill="#172526" r="23.597"/><circle cx="194.122" cy="457.381" fill="#697585" r="14.629"/></g></g></g></svg>