<svg enable-background="new 0 0 512 512" height="512" viewBox="0 0 512 512" width="512" xmlns="http://www.w3.org/2000/svg"><g id="Layer_1"><g><g fill="#f9d7aa"><path d="m353.111 221.861 8.281-26.491s14.57-4.044 22.254 11.628-12.424 47.874-29.77 50.579c-4.81-12.259-.765-35.716-.765-35.716z"/><path d="m159.343 221.861-8.281-26.491s-14.57-4.044-22.254 11.628 12.424 47.874 29.77 50.579c4.809-12.259.765-35.716.765-35.716z"/><path d="m198.079 306.639h117.246v121.701h-117.246z"/></g><g><path d="m197.463 306.639v19.841s22.969 52.436 69.3 52.436c22.237 0 37.778-8.734 47.945-17.816v-54.46h-117.245z" fill="#e8ac6b"/></g><path d="m360.811 221.933c.036-1.107.056-2.213.056-3.32 0-68.794 20.075-146.411-102.047-147.552-.561-.011-2.728-.027-2.734-.027s-2.173.016-2.734.027c-122.122 1.14-102.047 78.758-102.047 147.552 0 1.107.019 2.213.055 3.32s-.123 51.197 7.44 63.996 52.36 71.294 94.83 71.294c.039-.039 4.945-.041 4.986 0 42.47 0 87.267-58.494 94.83-71.294 7.563-12.799 7.44-63.996 7.44-63.996z" fill="#f9d7aa"/><path d="m438.042 459.727c-2.182-54.364-44.016-66.92-69.134-69.542-6.898-.72-27.206-.69-41.195-.572l.013-.033c-8.122.069-14.123.168-14.123.168-1.063 18.2-22.69 20.378-56.504 21.032-33.813-.654-58.35-6.943-58.35-21.032 0 0-5.44-.093-12.916-.162l.013.033c-13.457-.123-33.546-.166-40.555.566-25.119 2.621-66.953 15.177-69.135 69.542-1.877 13.558 0 32.925 0 32.925s61.142 18.713 176.701 19.338c.86.013 7.624.013 8.484 0 115.56-.624 176.701-19.338 176.701-19.338s1.877-19.367 0-32.925z" fill="#15a8c2"/><path d="m141.599 197.825c10.513-.855 15.718 9.144 15.718 9.144 4.441-14.032-.725-61.665 27.283-87.693 18.068 9.035 101.895 18.232 144.109-2.193 12.425 10.284 27.971 47.286 23.992 86.912 8.181-2.452 6.487-12.549 21.269-9.458 1.612-21.146 18.68-100.95-37.89-128.718-51.658-25.357-109.375-41.888-175.856 15.426-33.101 24.911-23.027 86.317-18.625 116.58z" fill="#240703"/><path d="m258.566 431.352-19.161 21.863 9.657 58.785h19.007l9.658-58.785z" fill="#091e26"/><path d="m275.03 422.463c0-10.188-9.608-11.698-16.481-11.711-.019 2.004.006 0 0 0s.006 0 0 0c-6.872.013-16.481 1.523-16.481 11.711 0 9.117 8.911 16.894 14.862 18.456.411.19 2.826.19 3.237 0 5.952-1.562 14.863-9.339 14.863-18.456z" fill="#091e26"/><g><path d="m192.736 452.264c-.799 0-1.59-.333-2.152-.987-23.289-27.049-24.771-59.987-24.819-61.373-.059-1.568 1.161-2.884 2.729-2.943 1.667-.141 2.884 1.161 2.943 2.729.015.322 1.501 32.387 23.451 57.883 1.024 1.187.891 2.98-.299 4.004-.537.462-1.195.687-1.853.687z" fill="#172526"/><path d="m342.43 420.084c-.617 0-1.242-.152-1.819-.47-1.834-1.006-2.503-3.309-1.494-5.139 3.926-7.147 4.855-16.815 5.236-23.034.126-2.085 1.867-3.642 4.011-3.546 2.085.129 3.675 1.923 3.546 4.011-.059.98-.607 16.12-6.16 26.213-.688 1.255-1.986 1.965-3.32 1.965z" fill="#2e4241"/><path d="m367.515 486.338c-.625 0-1.25-.203-1.775-.621-1.224-.98-1.423-2.769-.444-3.993 1.405-3.095 5.376-37.856-5.25-51.879-4.895-6.459-11.365-10.271-18.715-11.021-8.186-.843-16.704 2.218-24.002 8.603-14.353 12.556-22.253 39.549-22.331 39.823-.433 1.501-2.004 2.37-3.516 1.941-1.505-.433-2.374-2.008-1.941-3.516.336-1.172 8.455-28.879 24.047-42.521 8.5-7.435 18.545-10.977 28.32-9.979 8.958.913 16.796 5.494 22.664 13.24 12.537 16.549 7.886 55.451 5.161 58.859-.561.698-1.386 1.064-2.218 1.064z" fill="#172526"/><circle cx="290.614" cy="470.011" fill="#697585" r="7.808"/><circle cx="366.648" cy="487.363" fill="#697585" r="7.808"/><path d="m360.594 430.795c-1.272 0-2.54-.51-3.472-1.516-13.291-14.364-28.217-6.866-28.849-6.537-2.303 1.19-5.165.311-6.378-1.993-1.213-2.3-.351-5.143 1.945-6.37 7.494-4 25.548-7.387 40.225 8.467 1.778 1.919 1.66 4.914-.255 6.688-.913.843-2.066 1.261-3.216 1.261z" fill="#2e4241"/><circle cx="198.415" cy="459.836" fill="#172526" r="23.662"/><circle cx="198.415" cy="459.836" fill="#697585" r="14.669"/></g><path d="m256.791 410.781 58.543-39.242 13.519 18.184-36.031 51.008z" fill="#18c0d1"/><path d="m256.791 410.781-58.703-39.242-13.36 18.184 36.031 51.008z" fill="#18c0d1"/></g></g></svg>