<svg enable-background="new 0 0 512 512" height="512" viewBox="0 0 512 512" width="512" xmlns="http://www.w3.org/2000/svg"><g id="Layer_1"><g><path d="m194.597 305.318h116.789v121.227h-116.789z" fill="#e09f67"/><g><path d="m263.378 370.151c22.247 0 37.823-9.961 48.008-20.278v-44.556h-116.789v19.763c0 .001 22.631 45.071 68.781 45.071z" fill="#ce8a57"/></g><g fill="#e09f67"><path d="m259.42 70.485c-.566-.011-2.748-.027-2.754-.027s-2.188.016-2.754.027c-122.99 1.149-102.773 79.318-102.773 148.602 0 69.798 72.261 139.596 105.51 139.596h.034c33.248 0 105.51-69.798 105.51-139.596 0-69.284 20.218-147.453-102.773-148.602z"/><path d="m354.382 222.358 8.34-26.679s14.673-4.073 22.412 11.71-12.512 48.214-29.982 50.939c-4.843-12.346-.77-35.97-.77-35.97z"/><path d="m159.235 222.358-8.34-26.679s-14.673-4.073-22.412 11.71 12.512 48.214 29.982 50.939c4.843-12.346.77-35.97.77-35.97z"/></g><path d="m364.31 195.679c-7.471 2.109-11.262 12.54-11.262 12.54-2.004-16.226 2.334-67.224-42.14-79.973-28.247 15.067-81.394 61.429-174.78 53.315.495-11.59-15.341-55.285 15.647-98.518 33.527-46.775 116.994-74.178 178.106-12.749 16.527-1.159 35.071 5.795 48.979 39.407 13.909 33.612-14.55 85.978-14.55 85.978z" fill="#240703"/><path d="m167.337 174.607s-8.664 14.488-4.912 37.669c-4.361-11.011-6.365-16.215-14.73-17.04-2.677-7.265-2.295-20.629-2.295-20.629z" fill="#240703"/><path d="m433.23 459.932c-2.174-54.152-43.844-66.66-68.865-69.271-10.857-1.133-55.09-.403-55.09-.403-1.059 18.129-22.602 35.49-56.284 36.141-33.682-.651-58.123-22.108-58.123-36.141 0 0-42.393-.73-53.25.403-25.021 2.611-66.692 15.118-68.866 69.271-1.87 13.505 0 32.796 0 32.796s60.904 18.64 176.013 19.262c.857.013 7.594.013 8.451 0 115.11-.622 176.013-19.262 176.013-19.262s1.871-19.292.001-32.796z" fill="#f7f7f7"/><g><path d="m309.275 390.226c-1.059 18.129-22.602 27.853-56.284 28.504-33.682-.651-58.123-14.47-58.123-28.504 0 0-5.419-.093-12.866-.161l47.334 121.609c6.297.149 12.768.248 19.429.284.857.013 7.594.013 8.451 0 6.249-.034 12.329-.124 18.257-.258l47.868-121.641c-8.089.069-14.066.167-14.066.167z" fill="#8ac1d6"/></g><path d="m252.684 431.638-19.086 21.778 9.62 58.556h18.933l9.62-58.556z" fill="#091e26"/><path d="m269.084 422.784c0-10.148-9.551-13.648-16.396-13.661l-.001-.001c-.006 0-.013.001-.019.001s-.013-.001-.019-.001l-.001.001c-6.846.013-16.396 3.513-16.396 13.661 0 9.082 8.876 16.829 14.804 18.384.409.189 2.815.189 3.224 0 5.928-1.556 14.804-9.303 14.804-18.384z" fill="#091e26"/><path d="m252.684 408.881 58.702-39.089 13.081 18.113-35.891 50.809z" fill="#b3edff"/><path d="m252.684 408.881-58.087-39.089-13.695 18.113 35.891 50.809z" fill="#b3edff"/><path d="m163.818 390.059h-4.223l3.521 52.193 20.37-.301-16.456 15.955 45.452 53.264 5.925.254-43.082-52.715 17.928-19.995-25.153-3.821z" fill="#ccc"/><path d="m180.902 387.905-18.744 1.372s1.411 19.384 2.908 50.393h23.959l-18.58 18.192 44.726 53.401 14.611.496 16.655.174z" fill="#f7f7f7"/><path d="m342.022 390.059h4.224l-3.521 52.193-20.371-.301 16.457 15.955-45.452 53.264-5.925.254 43.082-52.715-17.929-19.995 25.154-3.821z" fill="#ccc"/><path d="m324.939 387.905 18.744 1.372s-1.411 19.384-2.908 50.393c-14.917 0-23.959 0-23.959 0l18.58 18.192-44.726 53.401-14.611.496-16.655.174z" fill="#f7f7f7"/><g><path d="m187.705 452.469c-.795 0-1.584-.331-2.143-.983-23.198-26.943-24.675-59.753-24.723-61.134-.059-1.562 1.156-2.873 2.718-2.932 1.661-.14 2.873 1.156 2.932 2.718.015.32 1.495 32.261 23.36 57.658 1.02 1.182.888 2.968-.298 3.988-.535.461-1.19.685-1.846.685z" fill="#172526"/><path d="m336.816 420.414c-.615 0-1.237-.151-1.812-.468-1.827-1.002-2.493-3.296-1.488-5.119 3.911-7.119 4.836-16.75 5.216-22.944.125-2.077 1.86-3.628 3.996-3.532 2.077.129 3.661 1.915 3.532 3.996-.059.976-.605 16.057-6.136 26.111-.686 1.249-1.978 1.956-3.308 1.956z" fill="#2e4241"/><path d="m361.804 486.41c-.622 0-1.245-.203-1.768-.619-1.219-.976-1.418-2.758-.442-3.977 1.399-3.082 5.355-37.708-5.23-51.677-4.876-6.434-11.321-10.231-18.642-10.978-8.154-.84-16.639 2.21-23.909 8.57-14.297 12.507-22.167 39.395-22.244 39.667-.431 1.495-1.996 2.361-3.502 1.933-1.499-.431-2.364-2-1.933-3.502.335-1.167 8.423-28.766 23.953-42.356 8.467-7.406 18.473-10.934 28.21-9.94 8.923.91 16.731 5.473 22.576 13.188 12.488 16.484 7.855 55.234 5.141 58.63-.56.696-1.382 1.061-2.21 1.061z" fill="#172526"/><circle cx="285.202" cy="470.147" fill="#697585" r="7.778"/><circle cx="360.94" cy="487.431" fill="#697585" r="7.778"/><path d="m354.91 431.083c-1.267 0-2.53-.508-3.458-1.51-13.24-14.308-28.107-6.839-28.737-6.511-2.294 1.186-5.145.309-6.353-1.985-1.208-2.291-.35-5.123 1.937-6.345 7.465-3.985 25.448-7.358 40.069 8.434 1.771 1.911 1.654 4.894-.254 6.662-.91.839-2.059 1.255-3.204 1.255z" fill="#2e4241"/><circle cx="193.362" cy="460.012" fill="#172526" r="23.57"/><circle cx="193.362" cy="460.012" fill="#697585" r="14.612"/></g></g></g></svg>