<svg enable-background="new 0 0 512 512" height="512" viewBox="0 0 512 512" width="512" xmlns="http://www.w3.org/2000/svg"><g id="Layer_1"><g><path d="m353.558 222.12 8.265-26.441s14.543-4.037 22.212 11.606c7.67 15.643-12.401 47.784-29.714 50.484-4.799-12.236-.763-35.649-.763-35.649z" fill="#a34a17"/><path d="m160.272 222.12-8.265-26.441s-14.543-4.037-22.212 11.606c-7.67 15.643 12.401 47.784 29.714 50.484 4.799-12.236.763-35.649.763-35.649z" fill="#a34a17"/><path d="m198.936 306.739h117.026v143.932h-117.026z" fill="#974216"/><g><path d="m198.321 306.739v19.804s22.926 52.338 69.171 52.338c22.195 0 37.707-8.717 47.856-17.783v-54.358h-117.027z" fill="#661c05"/></g><path d="m361.364 222.192c.036-1.104.056-2.209.056-3.314 0-68.666 20.037-146.137-101.856-147.276-.56-.011-2.723-.027-2.729-.027s-2.169.016-2.729.027c-121.893 1.138-101.856 78.61-101.856 147.276 0 1.105.019 2.209.055 3.314s-.122 51.101 7.427 63.876 52.263 71.16 94.653 71.16c.039-.039 4.936-.041 4.977 0 42.391 0 87.104-58.385 94.653-71.16s7.426-63.876 7.426-63.876z" fill="#a34a17"/><path d="m440.091 460.285c-2.206-54.957-44.496-67.651-69.889-70.3-6.973-.728-27.503-.698-41.645-.578l.013-.033c-8.211.069-14.277.169-14.277.169l-57.723 50.696-58.384-50.696s-5.499-.094-13.057-.164l.013.033c-13.604-.125-33.912-.167-40.997.572-25.393 2.649-67.683 15.343-69.889 70.3-1.898 13.705 0 33.284 0 33.284s61.809 17.79 178.629 18.421c.87.014 7.707.014 8.577 0 116.82-.631 178.629-18.421 178.629-18.421s1.897-19.577 0-33.283z" fill="#7dd5de"/><path d="m139.691 196.971c7.253-1.741 15.756 9.713 18.168 17.431 4.338-8.351-1.469-36.225 10.145-45.516-1.161-16.259.31-55.747 30.932-65.038 16.685 12.775 75.916 23.228 124.695 0 16.259 9.291 27.873 47.617 23.228 74.329 3.484 11.614 9.372 20.187 8.17 36.225l2.068 2.55s-.061-23.589 13.222-21.275c4.72-15.831 3.252-38.404 5.575-44.598s4.484-41.036-7.049-47.23-28.567-41.036-35.535-44.907-27.099 6.194-37.164 0-37.175-19.356-68.14-6.194c-27.868-.774-47.224-2.605-59.613 18.828s-21.012 33.822-28.701 44.661c-7.691 10.839-.001 80.734-.001 80.734z" fill="#240703"/><g><g><path d="m207.836 239.549c-11.943 4.003-46.08 29.677-46.082 29.678 9.185 27.43 35.882 87.029 94.489 87.029 58.763 0 87.667-58.296 96.851-85.627-12.786-11.775-27.93-21.521-46.385-30.469-34.756-12.086-86.93-4.614-98.873-.611z" fill="#f7f7f7"/></g></g><path d="m377.458 98.934c-6.445-51.809-64.781-63.068-120.427-62.577-55.646-.491-113.982 10.769-120.428 62.577-2.439 37.003 0 72.396 0 72.396s32.84-16.441 120.428-16.739c87.588.298 120.427 16.739 120.427 16.739s2.439-35.393 0-72.396z" fill="#15a8c2"/><g fill="#f7f7f7"><path d="m157.378 203.775-1.77 2.183s8.096 38.475 11.581 60.194c5.095-2.413 7.24-4.692 7.24-4.692s-12.493-53.663-17.051-57.685z"/><path d="m356.623 203.775 1.77 2.183s-7.939 38.563-11.425 60.282c-5.095-2.413-6.843-5.322-6.843-5.322s11.94-53.121 16.498-57.143z"/></g></g></g></svg>