<svg enable-background="new 0 0 512 512" height="512" viewBox="0 0 512 512" width="512" xmlns="http://www.w3.org/2000/svg"><g id="Layer_1"><g><g fill="#f3c690"><path d="m354.075 222.107 8.247-26.384s14.511-4.028 22.164 11.581-12.374 47.68-29.65 50.374c-4.788-12.208-.761-35.571-.761-35.571z"/><path d="m161.092 222.107-8.247-26.384s-14.511-4.028-22.164 11.581 12.374 47.68 29.65 50.374c4.789-12.208.761-35.571.761-35.571z"/><path d="m199.672 306.542h116.771v121.209h-116.771z"/></g><g><path d="m199.058 306.542v19.76s22.876 52.224 69.02 52.224c22.147 0 37.625-8.698 47.751-17.744v-54.24z" fill="#eab57a"/></g><path d="m361.745 222.179c.036-1.102.055-2.204.055-3.307 0-68.516 19.994-145.819-101.634-146.955-.559-.011-2.717-.027-2.723-.027s-2.164.016-2.723.027c-121.627 1.136-101.634 78.439-101.634 146.955 0 1.102.019 2.205.055 3.307s-.122 50.99 7.41 63.737c7.533 12.747 52.149 71.005 94.447 71.005.039-.039 4.925-.041 4.966 0 42.298 0 86.914-58.258 94.447-71.005s7.41-63.737 7.41-63.737z" fill="#f3c690"/><path d="m441.637 459.414c-2.195-54.691-44.28-67.323-69.55-69.96-10.965-1.144-55.638-.407-55.638-.407-1.07 18.309-22.827 35.844-56.843 36.501-34.017-.658-58.701-22.327-58.701-36.501 0 0-42.815-.738-53.78.407-25.27 2.637-67.355 15.269-69.551 69.96-1.889 13.639 0 33.122 0 33.122s61.51 18.826 177.764 19.454c.865.013 7.67.013 8.535 0 116.254-.628 177.764-19.454 177.764-19.454s1.888-19.484 0-33.122z" fill="#65afba"/><path d="m162.676 82.151c-21.257-1.159-36.82 13.906-37.15 47.513s13.308 65.126 20.313 65.593c11.804 5.097 16.837 14.368 16.837 14.368 4.238-3.477-6.192-31.289 4.238-49.831s39.401-28.971 39.401-28.971c15.065 11.589 92.708 71.849 170.352 55.625-5.141-6.008-6.11-11.501-7.361-28.812-.94-13.013 3.498-82.052-53.477-109.092-63.242-30.014-134.214-8.112-153.153 33.607z" fill="#240703"/><path d="m352.491 174.859s3.896 26.074 2.737 34.766c3.477 2.318 2.706-15.01 14.1-14.169 0-5.604 2.089-13.984 0-16.293-2.089-2.308-16.837-4.304-16.837-4.304z" fill="#240703"/><g><path d="m228.03 244.764h-35.346c-11.405 0-20.683-9.279-20.683-20.684v-20.86c0-11.405 9.278-20.684 20.683-20.684h35.346c11.405 0 20.683 9.279 20.683 20.684v20.86c0 11.405-9.278 20.684-20.683 20.684zm-35.346-50.99c-5.209 0-9.446 4.237-9.446 9.447v20.86c0 5.209 4.237 9.447 9.446 9.447h35.346c5.209 0 9.446-4.237 9.446-9.447v-20.86c0-5.209-4.237-9.447-9.446-9.447z"/><path d="m322.476 244.764h-35.345c-11.405 0-20.684-9.279-20.684-20.684v-20.86c0-11.405 9.279-20.684 20.684-20.684h35.345c11.405 0 20.684 9.279 20.684 20.684v20.86c0 11.405-9.279 20.684-20.684 20.684zm-35.345-50.99c-5.209 0-9.447 4.237-9.447 9.447v20.86c0 5.209 4.238 9.447 9.447 9.447h35.345c5.209 0 9.447-4.237 9.447-9.447v-20.86c0-5.209-4.238-9.447-9.447-9.447z"/><path d="m272.067 210.712c-.412 0-.831-.064-1.243-.199-14.821-4.825-26.026-.18-26.138-.132-2.032.868-4.39-.067-5.267-2.098-.876-2.027.043-4.379 2.067-5.263.56-.248 13.964-5.956 31.822-.14 2.108.687 3.26 2.95 2.573 5.059-.551 1.696-2.124 2.773-3.814 2.773z"/><path d="m177.623 204.396c-.331 0-.666-.042-1.001-.127l-31.295-8.033c-2.147-.552-3.44-2.739-2.889-4.885.55-2.148 2.741-3.435 4.885-2.891l31.295 8.033c2.147.552 3.44 2.739 2.889 4.885-.465 1.813-2.096 3.018-3.884 3.018z"/><path d="m337.539 204.396c-1.752 0-3.362-1.157-3.86-2.925-.601-2.134.64-4.35 2.774-4.952l28.496-8.033c2.138-.599 4.352.641 4.952 2.773.602 2.134-.641 4.35-2.773 4.952l-28.497 8.033c-.365.102-.731.152-1.092.152z"/></g><g><path d="m257.447 438.907c50.47 0 71.659-26.897 73.062-50.082-8.3.069-14.459.17-14.459.17-1.07 18.31-22.827 35.844-56.844 36.501-34.017-.657-58.701-22.327-58.701-36.501 0 0-6.561-.112-15.194-.181.039 17.25 19.914 50.093 72.136 50.093z" fill="#559da5"/></g><g><path d="m193.849 447.601c-.795 0-1.583-.331-2.143-.983-23.194-26.939-24.671-59.744-24.719-61.125-.059-1.561 1.156-2.872 2.717-2.931 1.661-.14 2.872 1.156 2.931 2.717.015.32 1.495 32.256 23.356 57.649 1.02 1.182.887 2.968-.298 3.988-.533.461-1.189.685-1.844.685z" fill="#172526"/><path d="m342.937 415.551c-.615 0-1.237-.151-1.812-.468-1.826-1.002-2.493-3.296-1.488-5.118 3.911-7.118 4.836-16.747 5.215-22.94.125-2.077 1.86-3.627 3.995-3.531 2.077.129 3.66 1.915 3.531 3.995-.059.976-.605 16.055-6.135 26.107-.684 1.248-1.977 1.955-3.306 1.955z" fill="#2e4241"/><path d="m367.921 481.537c-.622 0-1.245-.203-1.767-.619-1.219-.976-1.418-2.758-.442-3.977 1.399-3.082 5.354-37.702-5.229-51.669-4.875-6.433-11.319-10.229-18.639-10.977-8.152-.84-16.636 2.209-23.905 8.569-14.294 12.505-22.163 39.389-22.241 39.661-.431 1.495-1.996 2.36-3.502 1.933-1.499-.431-2.364-1.999-1.933-3.502.335-1.167 8.421-28.762 23.949-42.349 8.465-7.405 18.47-10.933 28.206-9.938 8.922.91 16.728 5.472 22.572 13.186 12.486 16.482 7.854 55.226 5.14 58.621-.559.696-1.38 1.061-2.209 1.061z" fill="#172526"/><circle cx="291.331" cy="465.276" fill="#697585" r="7.777"/><circle cx="367.057" cy="482.558" fill="#697585" r="7.777"/><path d="m361.028 426.218c-1.267 0-2.53-.508-3.458-1.51-13.238-14.305-28.103-6.838-28.732-6.51-2.294 1.186-5.144.309-6.352-1.985-1.208-2.29-.35-5.122 1.937-6.344 7.464-3.984 25.444-7.357 40.063 8.432 1.771 1.911 1.653 4.894-.254 6.661-.91.84-2.059 1.256-3.204 1.256z" fill="#2e4241"/><circle cx="199.505" cy="455.142" fill="#172526" r="23.566"/><circle cx="199.505" cy="455.142" fill="#697585" r="14.61"/></g></g></g></svg>