<svg enable-background="new 0 0 512 512" height="512" viewBox="0 0 512 512" width="512" xmlns="http://www.w3.org/2000/svg"><g id="Layer_1"><g><path d="m144.031 208.075s-35.584-109.848 10.83-129.961c4.641-25.528 21.725-28.622 30.202-32.49 3.836-10.83 23.949-34.811 81.967-30.943s58.018-.774 71.942-7.736c1.547 12.377 39.926 26.302 23.444 71.169 13.688 2.321 28.072 41.338 5.409 117.752-45.098.001-223.794 12.209-223.794 12.209z" fill="#240703"/><g fill="#e09f67"><path d="m353.456 222.66 8.258-26.418s14.53-4.033 22.193 11.596-12.39 47.742-29.688 50.44c-4.796-12.225-.763-35.618-.763-35.618z"/><path d="m160.221 222.66-8.258-26.418s-14.53-4.033-22.193 11.596 12.39 47.742 29.688 50.44c4.796-12.225.763-35.618.763-35.618z"/><path d="m198.851 307.205h116.923v121.366h-116.923z"/></g><g><path d="m198.237 307.205v19.786s22.906 52.292 69.11 52.292c22.175 0 37.674-8.71 47.813-17.767v-54.31h-116.923z" fill="#ce8a57"/></g><path d="m361.135 222.732c.036-1.104.056-2.207.056-3.311 0-68.605 20.02-146.008-101.766-147.146-.56-.011-2.721-.027-2.726-.027-.006 0-2.167.016-2.727.027-121.786 1.137-101.766 78.541-101.766 147.146 0 1.104.019 2.207.055 3.311s-.122 51.056 7.42 63.82 52.216 71.097 94.57 71.097c.039-.039 4.931-.041 4.973 0 42.353 0 87.027-58.333 94.57-71.097s7.42-63.82 7.42-63.82z" fill="#e09f67"/><path d="m437.681 459.872c-2.176-54.214-43.895-66.736-68.944-69.35-6.879-.718-27.132-.689-41.082-.57l.013-.033c-8.1.068-14.084.167-14.084.167-1.06 18.15-22.628 27.885-56.348 28.536-33.72-.652-58.19-14.487-58.19-28.536 0 0-5.425-.093-12.881-.162l.013.033c-13.42-.123-33.454-.165-40.443.565-25.05 2.614-66.769 15.136-68.945 69.35-1.872 13.52 0 32.834 0 32.834s60.974 18.662 176.215 19.284c.858.013 7.603.013 8.461 0 115.242-.623 176.215-19.284 176.215-19.284s1.872-19.314 0-32.834z" fill="#15a8c2"/><path d="m256.928 431.546-19.109 21.803 9.632 58.623h18.954l9.632-58.623z" fill="#091e26"/><path d="m273.347 422.681c0-10.16-9.562-13.663-16.415-13.677l-.001-.001c-.006 0-.013.001-.019.001s-.013-.001-.019-.001l-.001.001c-6.853.013-16.415 3.517-16.415 13.677 0 9.092 8.886 16.848 14.821 18.405.409.189 2.819.189 3.228 0 5.934-1.557 14.821-9.313 14.821-18.405z" fill="#091e26"/><path d="m256.928 408.762 58.846-39.134 13.019 20.204-35.933 48.798z" fill="#29ced6"/><path d="m256.928 408.762-58.077-39.134-13.788 20.204 35.933 48.798z" fill="#29ced6"/><path d="m367.825 195.867c0-34.037 21.326-131.913-111.424-131.913s-112.364 113.685-112.364 133.054c0 0 12.855-7.675 13.774 17.941 4.013-.686 4.754-8.267 3.997-19.948s0-55.55 0-55.55c7.752-11.828 14.887-25.979 18.582-38.903 9.283-.774 41.527 27.075 148.403 12.377 12.101 8.237 28.745 26.534 23.834 100.153-.146 2.185 1.988 1.871 3.24 1.871 3.912-15.664 5.718-19.625 11.958-19.082z" fill="#240703"/><g><path d="m188.706 452.401c-.796 0-1.585-.332-2.146-.984-23.225-26.974-24.703-59.822-24.751-61.205-.059-1.563 1.158-2.876 2.721-2.935 1.663-.14 2.876 1.158 2.935 2.721.015.321 1.497 32.298 23.387 57.724 1.021 1.184.889 2.972-.299 3.993-.534.461-1.19.686-1.847.686z" fill="#172526"/><path d="m337.988 420.309c-.616 0-1.239-.151-1.814-.468-1.829-1.003-2.496-3.3-1.49-5.125 3.916-7.127 4.842-16.769 5.222-22.97.125-2.079 1.862-3.632 4-3.536 2.079.129 3.665 1.917 3.536 4-.059.977-.606 16.076-6.143 26.141-.685 1.25-1.98 1.958-3.311 1.958z" fill="#2e4241"/><path d="m363.005 486.381c-.623 0-1.246-.203-1.77-.619-1.22-.977-1.419-2.762-.442-3.982 1.401-3.086 5.361-37.751-5.236-51.736-4.882-6.441-11.334-10.243-18.664-10.991-8.163-.841-16.658 2.212-23.936 8.58-14.313 12.521-22.192 39.44-22.27 39.713-.431 1.497-1.998 2.363-3.506 1.936-1.501-.431-2.367-2.002-1.936-3.506.336-1.169 8.432-28.799 23.98-42.404 8.476-7.415 18.494-10.947 28.243-9.951 8.934.911 16.75 5.479 22.601 13.203 12.503 16.503 7.864 55.298 5.147 58.697-.559.695-1.382 1.06-2.211 1.06z" fill="#172526"/><circle cx="286.315" cy="470.099" fill="#697585" r="7.787"/><circle cx="362.14" cy="487.403" fill="#697585" r="7.787"/><path d="m356.103 430.991c-1.268 0-2.533-.509-3.462-1.512-13.255-14.324-28.139-6.847-28.77-6.519-2.297 1.187-5.151.31-6.36-1.987-1.209-2.293-.35-5.129 1.939-6.353 7.474-3.989 25.477-7.367 40.115 8.443 1.773 1.914 1.655 4.9-.254 6.67-.911.841-2.062 1.258-3.208 1.258z" fill="#2e4241"/><circle cx="194.37" cy="459.952" fill="#172526" r="23.597"/><circle cx="194.37" cy="459.952" fill="#697585" r="14.629"/></g></g></g></svg>