<svg enable-background="new 0 0 512 512" height="512" viewBox="0 0 512 512" width="512" xmlns="http://www.w3.org/2000/svg"><g id="Layer_1"><g><g fill="#f3c690"><path d="m353.585 221.571 8.281-26.491s14.57-4.044 22.254 11.628-12.424 47.873-29.77 50.579c-4.81-12.259-.765-35.716-.765-35.716z"/><path d="m159.817 221.571-8.281-26.491s-14.57-4.044-22.254 11.628 12.424 47.873 29.77 50.579c4.809-12.259.765-35.716.765-35.716z"/><path d="m198.554 306.349h117.245v121.701h-117.245z"/></g><g><path d="m197.937 306.349v19.841s22.969 52.436 69.3 52.436c22.237 0 37.778-8.734 47.945-17.816v-54.46h-117.245z" fill="#eab57a"/></g><path d="m361.285 221.643c.036-1.107.056-2.213.056-3.32 0-68.794 20.075-146.411-102.047-147.551-.561-.011-2.728-.027-2.734-.027s-2.173.016-2.734.027c-122.122 1.14-102.047 78.757-102.047 147.551 0 1.107.019 2.213.055 3.32s-.123 51.197 7.44 63.996 52.36 71.294 94.83 71.294c.039-.039 4.945-.041 4.986 0 42.47 0 87.267-58.494 94.83-71.294 7.563-12.799 7.44-63.996 7.44-63.996z" fill="#f3c690"/><path d="m438.042 459.728c-2.182-54.364-44.016-66.92-69.135-69.541-6.898-.72-27.206-.69-41.196-.572l.013-.033c-8.122.069-14.123.168-14.123.168-1.063 18.2-22.69 27.962-56.504 28.615-33.813-.654-58.35-14.527-58.35-28.615 0 0-5.44-.093-12.916-.162l.013.033c-13.457-.123-33.546-.165-40.555.566-25.119 2.621-66.953 15.177-69.135 69.541-1.877 13.557 0 32.924 0 32.924s61.142 18.713 176.701 19.338c.86.014 7.624.014 8.484 0 115.56-.624 176.701-19.338 176.701-19.338s1.88-19.367.002-32.924z" fill="#b3edff"/><path d="m256.791 431.324-19.162 21.863 9.658 58.785h19.007l9.658-58.785z" fill="#091e26"/><path d="m273.255 422.435c0-10.188-9.588-13.701-16.46-13.714l-.001-.001c-.006 0-.013.001-.019.001s-.013-.001-.02-.001l-.001.001c-6.872.013-16.46 3.526-16.46 13.714 0 9.117 8.911 16.894 14.862 18.456.411.19 2.826.19 3.237 0 5.951-1.562 14.862-9.339 14.862-18.456z" fill="#091e26"/><path d="m256.791 408.884 59.008-39.242 13.055 18.185-36.032 51.007z" fill="#d2f7ff"/><path d="m256.791 408.884-58.237-39.242-13.826 18.185 36.031 51.007z" fill="#d2f7ff"/><path d="m154.228 257.287c6.048 14.398 8.14 26.438 21.95 43.487 13.963 17.238 36.869 32.611 51.585 33.743 20.168 1.551 29.829-8.533 29.829-8.533s8.12 9.242 26.41 8.921c22.108-.388 38.398-15.902 49.258-29.865s27.607-45.814 27.607-45.814-.303 31.632-12.674 49.062c-9.598 13.523-22.19 39.811-91.09 71.223-20.767-8.052-70.391-43.54-91.171-70.06s-11.704-52.164-11.704-52.164z" fill="#240703"/><path d="m150.55 194.612c5.164 6.414 7.491 17.274 6.715 24.255 2.552 2.704 10.008-16.421 7.369-38.785-3.227-27.344-4.266-68.262 27.538-85.328 6.206 7.757 79.701 34.131 135.263 3.879 10.57 7.757 26.912 30.253 24.559 75.244-2.353 21.72-1.475 39.319 2.352 45.258 1.5-14.23 4.334-23.955 14.553-24.522 5.909-33.191 16.192-74.26-6.329-98.306s-58.696-48.094-95.154-48.094-96.891 1.551-122.913 58.954c-11.285 21.718 6.047 87.445 6.047 87.445z" fill="#240703"/><g><path d="m192.736 452.237c-.799 0-1.59-.333-2.152-.987-23.289-27.049-24.771-59.987-24.819-61.373-.059-1.568 1.161-2.884 2.729-2.943 1.667-.141 2.884 1.161 2.943 2.729.015.322 1.501 32.387 23.451 57.883 1.024 1.187.891 2.98-.299 4.004-.537.461-1.195.687-1.853.687z" fill="#172526"/><path d="m342.43 420.056c-.617 0-1.242-.152-1.819-.47-1.834-1.006-2.503-3.309-1.494-5.139 3.926-7.147 4.855-16.815 5.236-23.034.126-2.085 1.867-3.642 4.011-3.546 2.085.129 3.675 1.923 3.546 4.011-.059.98-.607 16.12-6.16 26.213-.688 1.255-1.986 1.965-3.32 1.965z" fill="#2e4241"/><path d="m367.515 486.31c-.625 0-1.25-.203-1.775-.621-1.224-.98-1.423-2.769-.444-3.993 1.405-3.095 5.376-37.856-5.25-51.879-4.895-6.459-11.365-10.271-18.715-11.021-8.186-.843-16.704 2.218-24.002 8.603-14.353 12.556-22.253 39.549-22.331 39.822-.433 1.501-2.004 2.37-3.516 1.941-1.505-.433-2.374-2.008-1.941-3.516.336-1.172 8.455-28.879 24.047-42.521 8.5-7.435 18.545-10.977 28.32-9.979 8.958.913 16.796 5.494 22.664 13.24 12.537 16.549 7.886 55.45 5.161 58.859-.562.699-1.386 1.065-2.218 1.065z" fill="#172526"/><circle cx="290.613" cy="469.983" fill="#697585" r="7.808"/><circle cx="366.647" cy="487.335" fill="#697585" r="7.808"/><path d="m360.594 430.767c-1.272 0-2.54-.51-3.472-1.516-13.291-14.364-28.217-6.866-28.849-6.537-2.303 1.19-5.165.311-6.378-1.993-1.213-2.3-.351-5.143 1.945-6.37 7.494-4 25.548-7.387 40.225 8.467 1.778 1.919 1.66 4.914-.255 6.688-.913.843-2.066 1.261-3.216 1.261z" fill="#2e4241"/><circle cx="198.415" cy="459.809" fill="#172526" r="23.662"/><circle cx="198.415" cy="459.809" fill="#697585" r="14.669"/></g></g></g></svg>