<svg enable-background="new 0 0 512 512" height="512" viewBox="0 0 512 512" width="512" xmlns="http://www.w3.org/2000/svg"><g id="Layer_1"><g><path d="m194.255 306.098h117.32v140.116h-117.32z" fill="#e09f67"/><g><path d="m263.349 371.227c22.348 0 37.995-10.006 48.226-20.37v-44.758h-117.32v19.853c0-.001 22.734 45.275 69.094 45.275z" fill="#ce8a57"/></g><g fill="#e09f67"><path d="m259.373 70.198c-.568-.011-2.76-.027-2.766-.027s-2.198.016-2.767.027c-123.55 1.154-103.24 79.679-103.24 149.277 0 70.115 72.59 140.231 105.989 140.231h.034c33.399 0 105.989-70.115 105.989-140.231.001-69.598 20.311-148.123-103.239-149.277z"/><path d="m354.767 222.761 8.378-26.801s14.74-4.092 22.514 11.764-12.569 48.433-30.118 51.17c-4.866-12.401-.774-36.133-.774-36.133z"/><path d="m158.732 222.761-8.378-26.801s-14.74-4.092-22.514 11.764 12.569 48.433 30.118 51.17c4.866-12.401.774-36.133.774-36.133z"/></g><path d="m438.62 460.156c-2.211-55.095-44.608-67.82-70.064-70.476-6.99-.73-27.572-.7-41.749-.579l.013-.033c-8.231.07-14.312.17-14.312.17l-57.867 50.823-58.53-50.823s-5.513-.095-13.09-.164l.013.033c-13.638-.125-33.997-.168-41.1.574-25.456 2.656-67.853 15.381-70.064 70.476-1.902 13.74 0 33.367 0 33.367s61.964 17.834 179.077 18.467c.872.014 7.727.014 8.598 0 117.113-.633 179.077-18.467 179.077-18.467s1.9-19.629-.002-33.368z" fill="#15a8c2"/><path d="m143.239 195.689c7.116.272 15.004 9.736 17.103 13.229.935-17.465-9.735-57.061 2.842-74.525s32.356-15.81 43.914-33.629c11.173-13.966 38.653 4.55 46.016 4.647 16.914.224 27.887-12.298 40.189-9.68 0 0 13.51 3.743 26.317 15.386s26.779 10.479 27.943 32.6 11.186 46.572 5.593 65.201c6.05-.364 9.41-15.986 18.16-12.359 2.638-21.406-3.587-63.32-4.356-81.173-.768-17.853-.768-37.649-11.635-44.439s-20.957-9.895-35.705-6.79c-3.105-10.091-15.136-31.048-73.351-22.898s-75.68 11.643-90.815 5.822c-2.329 11.643.018 24.45-12.216 39.586s-8.722 64.357.001 109.022z" fill="#240703"/><path d="m297.396 337.886c-4.165 14.241-35.896 28.987-42.152 32.869-11.312-2.323-36.251-28.073-36.251-28.073 15.247 1.683 22.794 5.8 36.097-3.244 14.078 4.927 23.185 7.493 42.306-1.552z" fill="#240703"/><g><path d="m188.414 451.417c-.799 0-1.591-.333-2.153-.988-23.303-27.066-24.787-60.025-24.835-61.412-.059-1.569 1.162-2.886 2.73-2.945 1.669-.141 2.886 1.162 2.945 2.73.015.322 1.502 32.408 23.466 57.92 1.025 1.188.892 2.982-.3 4.007-.535.463-1.194.688-1.853.688z" fill="#172526"/><path d="m338.203 419.217c-.618 0-1.243-.152-1.82-.47-1.835-1.006-2.505-3.311-1.495-5.142 3.929-7.151 4.858-16.826 5.239-23.048.126-2.087 1.868-3.644 4.014-3.548 2.087.129 3.677 1.924 3.548 4.014-.059.98-.608 16.13-6.164 26.23-.688 1.253-1.986 1.964-3.322 1.964z" fill="#2e4241"/><path d="m363.305 485.512c-.625 0-1.25-.203-1.776-.622-1.225-.98-1.424-2.771-.444-3.995 1.406-3.097 5.379-37.88-5.253-51.912-4.898-6.463-11.372-10.277-18.727-11.028-8.191-.844-16.715 2.22-24.017 8.609-14.362 12.564-22.267 39.574-22.345 39.848-.433 1.502-2.005 2.371-3.518 1.942-1.506-.433-2.375-2.009-1.942-3.518.337-1.173 8.461-28.897 24.062-42.548 8.505-7.44 18.557-10.984 28.338-9.985 8.964.914 16.807 5.497 22.678 13.248 12.545 16.559 7.891 55.486 5.165 58.897-.564.698-1.389 1.064-2.221 1.064z" fill="#172526"/><circle cx="286.354" cy="469.175" fill="#697585" r="7.813"/><circle cx="362.437" cy="486.538" fill="#697585" r="7.813"/><path d="m356.379 429.934c-1.273 0-2.542-.511-3.474-1.517-13.3-14.373-28.235-6.87-28.867-6.541-2.305 1.191-5.168.311-6.382-1.994-1.213-2.301-.351-5.146 1.946-6.374 7.499-4.003 25.564-7.392 40.251 8.472 1.779 1.92 1.661 4.917-.255 6.692-.914.844-2.068 1.262-3.219 1.262z" fill="#2e4241"/><circle cx="194.097" cy="458.994" fill="#172526" r="23.677"/><circle cx="194.097" cy="458.994" fill="#697585" r="14.678"/></g></g></g></svg>