<svg enable-background="new 0 0 512 512" height="512" viewBox="0 0 512 512" width="512" xmlns="http://www.w3.org/2000/svg"><g id="Layer_1"><g><path d="m194.311 306.685h117.001v135.727h-117.001z" fill="#f9d7aa"/><g><path d="m263.217 371.637c22.287 0 37.892-9.979 48.095-20.315v-44.637h-117.001v19.799s22.672 45.153 68.906 45.153z" fill="#e8ac6b"/></g><g fill="#f9d7aa"><path d="m259.252 71.425c-.567-.011-2.753-.027-2.758-.027-.006 0-2.192.016-2.759.027-123.214 1.151-102.96 79.462-102.96 148.872 0 69.925 72.393 139.85 105.702 139.85h.034c33.309 0 105.702-69.925 105.702-139.85-.001-69.409 20.254-147.721-102.961-148.872z"/><path d="m354.387 223.574 8.355-26.728s14.7-4.081 22.453 11.732c7.753 15.812-12.535 48.302-30.037 51.032-4.852-12.369-.771-36.036-.771-36.036z"/><path d="m158.885 223.574-8.355-26.728s-14.7-4.081-22.453 11.732 12.535 48.302 30.037 51.032c4.851-12.369.771-36.036.771-36.036z"/></g><path d="m438.012 460.296c-2.205-54.945-44.487-67.636-69.874-70.285-6.971-.728-27.497-.698-41.636-.578l.013-.033c-8.209.069-14.274.169-14.274.169l-57.71 50.685-58.371-50.684s-5.498-.094-13.054-.164l.013.033c-13.601-.125-33.905-.167-40.989.572-25.387 2.649-67.669 15.34-69.874 70.285-1.897 13.702 0 33.277 0 33.277s61.796 17.786 178.591 18.417c.869.014 7.706.014 8.575 0 116.795-.631 178.591-18.417 178.591-18.417s1.897-19.574-.001-33.277z" fill="#65afba"/><path d="m138.185 198.52c7.303-1.617 14.412-1.651 21.876 11.122.497-19.739-2.967-34.834 4.571-39.479 5.216 5.806 5.216 12.773 5.216 12.773 9.289-15.095 25.467-26.706 26.667-53.412 8.167 15.095 37.731 58.057 117.001 49.929-6.654-8.128-9.245-17.417-9.245-17.417s13.81 12.74 35.103 15.095c-1.161-4.645 0-16.256 0-16.256s14.261 10.338 16.889 48.768c3.839-12.28 7.892-14.644 13.412-12.008 2.791-10.053 22.017-90.675-12.884-124.348-36.877-35.58-139.337-62.043-182.299 0-23.223 2.824-47.068 21.221-36.307 125.233z" fill="#240703"/><g><path d="m184.386 450.103c-.797 0-1.586-.332-2.147-.985-23.24-26.992-24.72-59.862-24.768-61.246-.059-1.564 1.158-2.878 2.723-2.937 1.664-.14 2.878 1.159 2.937 2.723.015.321 1.498 32.32 23.402 57.763 1.022 1.184.889 2.974-.299 3.996-.535.461-1.191.686-1.848.686z" fill="#172526"/><path d="m333.768 417.99c-.616 0-1.24-.151-1.815-.469-1.83-1.004-2.498-3.302-1.491-5.128 3.918-7.132 4.845-16.78 5.225-22.986.125-2.081 1.863-3.634 4.003-3.538 2.081.129 3.667 1.919 3.538 4.003-.059.978-.606 16.086-6.148 26.159-.685 1.25-1.98 1.959-3.312 1.959z" fill="#2e4241"/><path d="m358.801 484.105c-.624 0-1.247-.203-1.771-.62-1.221-.978-1.42-2.763-.443-3.985 1.402-3.088 5.365-37.777-5.239-51.771-4.885-6.446-11.341-10.249-18.676-10.998-8.169-.841-16.669 2.214-23.952 8.585-14.323 12.53-22.207 39.467-22.285 39.74-.432 1.498-2 2.365-3.509 1.937-1.502-.432-2.369-2.003-1.937-3.509.336-1.17 8.438-28.819 23.996-42.433 8.482-7.42 18.507-10.954 28.262-9.958 8.94.911 16.761 5.483 22.617 13.212 12.511 16.514 7.87 55.335 5.151 58.737-.561.698-1.383 1.063-2.214 1.063z" fill="#172526"/><circle cx="282.06" cy="467.813" fill="#697585" r="7.792"/><circle cx="357.936" cy="485.129" fill="#697585" r="7.792"/><path d="m351.895 428.678c-1.269 0-2.535-.509-3.464-1.513-13.264-14.334-28.158-6.851-28.789-6.523-2.299 1.188-5.154.31-6.364-1.989-1.21-2.295-.35-5.132 1.941-6.357 7.479-3.992 25.494-7.372 40.142 8.449 1.775 1.915 1.657 4.903-.255 6.674-.913.842-2.064 1.259-3.211 1.259z" fill="#2e4241"/><circle cx="190.053" cy="457.659" fill="#172526" r="23.613"/><circle cx="190.053" cy="457.659" fill="#697585" r="14.639"/></g><g><g><g><path d="m206.966 237.985c-11.94 4.002-46.07 29.67-46.072 29.671 9.183 27.425 35.874 87.011 94.468 87.011 58.75 0 87.649-58.284 96.831-85.609-12.784-11.773-27.924-21.516-46.375-30.462-34.75-12.082-86.912-4.613-98.852-.611z" fill="#f7f7f7"/></g></g><g fill="#f7f7f7"><path d="m357.086 199.786 1.77 2.182s-6.663 33.576-12.788 62.703c-5.093-2.413-6.841-5.321-6.841-5.321s13.301-55.543 17.859-59.564z"/><path d="m158.199 202.37-1.77 2.182s10.813 37.627 14.784 60.119c5.093-2.413 6.841-5.321 6.841-5.321s-15.298-52.959-19.855-56.98z"/></g></g></g></g></svg>