<svg id="Layer_1" enable-background="new 0 0 512 512" height="512" viewBox="0 0 512 512" width="512" xmlns="http://www.w3.org/2000/svg"><g><g fill="#f9d7aa"><path d="m354.131 222.362 8.294-26.534s14.594-4.051 22.291 11.647-12.444 47.953-29.819 50.662c-4.817-12.279-.766-35.775-.766-35.775z"/><path d="m160.044 222.362-8.294-26.534s-14.594-4.051-22.291 11.647 12.444 47.953 29.819 50.662c4.817-12.279.766-35.775.766-35.775z"/><path d="m198.844 307.28h117.439v121.902h-117.439z"/></g><g><path d="m198.227 307.28v19.873s23.007 52.523 69.415 52.523c22.273 0 37.84-8.748 48.024-17.846v-54.55z" fill="#e8ac6b"/></g><path d="m361.845 222.434c.036-1.108.056-2.217.056-3.326 0-68.908 20.108-146.653-102.216-147.795-.562-.011-2.733-.027-2.738-.027-.006 0-2.176.016-2.739.027-122.323 1.142-102.215 78.888-102.215 147.795 0 1.109.019 2.217.055 3.326s-.123 51.281 7.453 64.102 52.447 71.411 94.987 71.411c.039-.039 4.953-.041 4.995 0 42.54 0 87.411-58.591 94.987-71.411s7.452-64.102 7.452-64.102z" fill="#f9d7aa"/><path d="m441.724 459.113c-2.208-55.004-44.534-67.708-69.948-70.36-11.027-1.151-55.956-.409-55.956-.409-1.076 18.414-22.957 36.049-57.169 36.71-34.211-.661-59.037-22.455-59.037-36.71 0 0-43.06-.742-54.087.409-25.414 2.652-67.741 15.356-69.948 70.36-1.899 13.717 0 33.312 0 33.312s61.861 18.933 178.781 19.565c.87.013 7.714.013 8.584 0 116.919-.632 178.781-19.565 178.781-19.565s1.898-19.595-.001-33.312z" fill="#7dd5de"/><path d="m299.073 343.478c-4.17 14.256-35.932 29.017-42.195 32.903-11.324-2.325-40.118-31.361-40.118-31.361 11.844 5.385 26.648 9.067 39.964.013 14.092 4.931 23.209 7.499 42.349-1.555z" fill="#240703"/><path d="m363.131 84.331c3.355-3.496 13.739-17.094 11.02-27.195-29.137 6.605-92.462-15.54-142.578-10.878s-75.757 26.806-84.303 53.612c-26.806 40.015-11.289 99.326-11.289 99.326s3.584-2.159 7.965-3.304c.407-.106.8-.269 1.186-.456 2.203-.607 7.128-.846 11.765 6.69 2.331-9.324 2.487-39.626 2.409-52.058s7.786-76.533 97.092-55.555c14.716 2.331 42.499-19.41 72.99 2.331 32.054 17.692 31.311 73.575 28.082 100.579 2.492-1.154 5.151-1.675 7.272-1.908l7.957.784s4.171-29.998 8.444-54.861c4.274-24.862-4.273-55.941-18.012-57.107z" fill="#240703"/><g><path d="m256.48 438.488c50.758 0 72.069-27.051 73.48-50.369-8.348.07-14.541.171-14.541.171-1.076 18.414-22.958 36.049-57.169 36.71-34.211-.661-59.037-22.455-59.037-36.71 0 0-6.598-.113-15.281-.182.04 17.35 20.028 50.38 72.548 50.38z" fill="#6ac7cc"/></g><g><path d="m192.519 451.356c-.8 0-1.592-.333-2.155-.989-23.327-27.093-24.812-60.086-24.86-61.475-.059-1.57 1.163-2.889 2.733-2.948 1.67-.141 2.889 1.163 2.948 2.733.015.322 1.504 32.441 23.49 57.979 1.026 1.189.893 2.985-.3 4.011-.538.463-1.197.689-1.856.689z" fill="#172526"/><path d="m342.46 419.122c-.618 0-1.244-.152-1.822-.47-1.837-1.007-2.507-3.314-1.496-5.148 3.933-7.158 4.863-16.843 5.245-23.072.126-2.089 1.87-3.648 4.018-3.551 2.089.13 3.681 1.926 3.551 4.018-.059.981-.608 16.147-6.171 26.257-.688 1.255-1.988 1.966-3.325 1.966z" fill="#2e4241"/><path d="m367.587 485.485c-.626 0-1.252-.204-1.778-.622-1.226-.981-1.426-2.774-.444-4 1.407-3.1 5.385-37.918-5.259-51.965-4.903-6.47-11.384-10.288-18.746-11.04-8.199-.844-16.732 2.222-24.042 8.618-14.376 12.576-22.29 39.614-22.368 39.888-.433 1.504-2.007 2.374-3.522 1.944-1.507-.433-2.378-2.011-1.944-3.522.337-1.174 8.469-28.926 24.086-42.592 8.514-7.447 18.576-10.995 28.367-9.995 8.973.915 16.824 5.503 22.701 13.262 12.558 16.576 7.899 55.542 5.17 58.956-.562.702-1.388 1.068-2.221 1.068z" fill="#172526"/><circle cx="290.558" cy="469.132" fill="#697585" r="7.821"/><circle cx="366.718" cy="486.513" fill="#697585" r="7.821"/><path d="m360.654 429.851c-1.274 0-2.544-.511-3.477-1.518-13.313-14.387-28.264-6.877-28.897-6.547-2.307 1.192-5.173.311-6.388-1.996-1.215-2.303-.352-5.151 1.948-6.381 7.507-4.007 25.59-7.399 40.292 8.481 1.781 1.922 1.663 4.922-.256 6.699-.915.843-2.07 1.262-3.222 1.262z" fill="#2e4241"/><circle cx="198.207" cy="458.94" fill="#172526" r="23.701"/><circle cx="198.207" cy="458.94" fill="#697585" r="14.693"/></g></g></svg>