<svg enable-background="new 0 0 512 512" height="512" viewBox="0 0 512 512" width="512" xmlns="http://www.w3.org/2000/svg"><g id="Layer_1"><g><path d="m350.008 446.838c3.914-5.336 11.741-20.338 25.439-18.381s30.657-13.698 25.439-25.439-4.566-24.787 8.48-28.048 22.178-17.247 18.264-31.127 1.957-26.926 12.393-30.84 20.873-26.744 7.827-39.137-11.741-26.091-2.609-32.614 13.698-38.485-3.261-45.007c-16.959-6.523-19.568-23.482-15.655-40.441s-1.087-37.832-24.352-41.094c-23.265-3.261-28.599-17.612-29.193-24.787s-14.161-25.267-36.659-21.69-35.034-6.358-44.165-14.186-24.301-13.676-43.051 0-31.31 2.609-43.703 0-29.732-4.012-37.18 16.258c-7.448 20.269-26.091 18.313-37.832 22.227s-20.221 11.089-20.221 33.266-3.261 31.962-18.264 39.137c-15.002 7.175-13.046 30.657-4.566 44.355s1.902 37.18-6.55 43.703-10.409 31.31 4.593 40.441c15.002 9.132 19.568 27.108 15.002 47.147-4.566 20.038 2.45 36.998 26.664 45.477 24.214 8.48 31.389 17.612 30.737 37.832 2.609 15.003 55.444 35.876 90.015 35.876s102.408-12.928 102.408-12.928z" fill="#280905"/><g fill="#fdd7a6"><path d="m368.092 229.248 9.554-27.916s16.811-4.262 25.677 12.253-14.335 50.45-34.35 53.301c-5.547-12.919-.881-37.638-.881-37.638z"/><path d="m144.518 229.248-9.554-27.916s-16.811-4.262-25.677 12.253 14.335 50.45 34.349 53.301c5.549-12.919.882-37.638.882-37.638z"/><path d="m205.267 318.588h103.153v128.25h-103.153z"/></g><g><path d="m205.267 318.588v47.441c12.999 14.201 35.873 32.154 65.642 27.278 16.201-2.654 28.422-9.307 37.511-16.934v-57.785z" fill="#e6bd92"/></g><path d="m376.977 229.324c.042-1.166.064-2.332.064-3.499 0-72.496 23.163-154.29-117.744-155.492-.648-.012-3.148-.028-3.154-.028s-2.507.017-3.155.028c-140.907 1.202-117.744 82.996-117.744 155.492 0 1.166.022 2.333.064 3.499s10.586 51.715 19.313 65.203 49.687 77.368 98.69 77.368c.045-.041 5.705-.044 5.753 0 49.003 0 91.767-66.91 100.493-80.398 8.727-13.488 17.509-62.173 17.509-62.173z" fill="#fdd7a6"/><path d="m119.1 192.005s14.217 5.542 15.519 8.833c6.282 2.911 11.01 13.549 13.619 14.527s7.716.774 5.759-11.945-6.197-15.329 3.261-18.916c9.458-3.588 17.612-6.849 15.002-20.873s3.261-21.851 12.393-22.504c9.132-.652 20.547-3.588 27.07-20.547s19.568-16.633 28.7-13.046c9.132 3.588 8.806 14.35 20.221 15.981s19.242-3.261 26.417-7.501 21.199.326 23.156 16.307c.978 7.827 8.154 20.547 28.048 20.221 17.612-.652 21.199 16.307 17.938 27.07s-1.305 30.793 17.612 36.27c.652-5.264 3.83-14.55 3.83-14.55 6.606-2.804 16.39-1.825 16.39-1.825s1.899-61.83-27.78-94.234c-24.942-27.232-49.102-40.509-107.568-40.136-52.283.334-96.717 10.055-117.264 44.3-21.849 37.425-22.323 82.568-22.323 82.568z" fill="#240703"/><path d="m420.181 465.053c-1.96-48.826-39.532-60.103-62.091-62.457-9.789-1.022-49.671-.363-49.671-.363-.955 16.346-20.379 31.999-50.747 32.586-30.368-.587-52.405-19.933-52.405-32.586 0 0-38.223-.659-48.012.363-22.56 2.354-60.132 13.631-62.092 62.457-1.686 12.176 0 29.57 0 29.57s54.913 16.807 158.699 17.367c.773.012 6.847.012 7.62 0 103.787-.561 158.699-17.367 158.699-17.367s1.686-17.394 0-29.57z" fill="#7ed5dc"/><g><path d="m205.872 464.42c-.799 0-1.591-.333-2.153-.988-23.3-27.062-24.783-60.016-24.831-61.404-.059-1.568 1.161-2.885 2.73-2.944 1.668-.141 2.885 1.161 2.944 2.73.015.322 1.502 32.403 23.463 57.912 1.025 1.187.891 2.981-.3 4.006-.536.462-1.195.688-1.853.688z" fill="#172526"/><path d="m317.604 432.224c-.618 0-1.243-.152-1.82-.47-1.835-1.006-2.504-3.311-1.494-5.142 3.928-7.15 4.858-16.823 5.239-23.045.126-2.086 1.868-3.644 4.013-3.547 2.086.129 3.677 1.923 3.547 4.013-.059.98-.608 16.128-6.163 26.226-.688 1.255-1.987 1.965-3.322 1.965z" fill="#2e4241"/><path d="m342.702 498.51c-.625 0-1.25-.203-1.776-.621-1.224-.98-1.424-2.771-.444-3.995 1.406-3.096 5.378-37.874-5.253-51.905-4.897-6.462-11.371-10.276-18.724-11.027-8.19-.843-16.712 2.219-24.014 8.608-14.36 12.562-22.264 39.568-22.342 39.842-.433 1.502-2.005 2.371-3.518 1.942-1.505-.433-2.375-2.009-1.942-3.518.337-1.173 8.46-28.893 24.058-42.542 8.504-7.439 18.554-10.982 28.334-9.984 8.963.914 16.805 5.497 22.675 13.246 12.543 16.557 7.89 55.478 5.164 58.888-.561.7-1.386 1.066-2.218 1.066z" fill="#172526"/><circle cx="265.762" cy="482.175" fill="#697585" r="7.812"/><circle cx="341.834" cy="499.536" fill="#697585" r="7.812"/><path d="m335.777 442.94c-1.272 0-2.541-.51-3.473-1.517-13.298-14.371-28.231-6.869-28.863-6.54-2.304 1.191-5.168.311-6.381-1.994-1.213-2.301-.351-5.145 1.946-6.373 7.498-4.002 25.56-7.391 40.245 8.471 1.779 1.92 1.661 4.916-.255 6.692-.914.843-2.069 1.261-3.219 1.261z" fill="#2e4241"/><circle cx="211.554" cy="471.996" fill="#172526" r="23.674"/><circle cx="211.554" cy="471.996" fill="#697585" r="14.676"/></g><g><path d="m373.817 215.881c-8.83 8.951-20.516 26.233-35.456 47.346-3.614-1.617-6.024-1.657-6.024-1.657s29.583-45.054 39.601-58.155c4.597-4.065 6.121-2.107 6.121-2.107-2.278 4.058-4.242 14.573-4.242 14.573z" fill="#f7f7f7"/><path d="m146.354 215.881c7.35 11.356 19.848 23.343 31.186 47.346 3.614-1.617 6.024-1.657 6.024-1.657s-20.898-38.698-30.916-51.798c-6.293-6.626-12.801-4.681-12.801-4.681 2.276 4.058 6.507 10.79 6.507 10.79z" fill="#f7f7f7"/><g><path d="m201.212 245.94c-13.415 4.496-51.761 33.335-51.763 33.336 10.317 30.812 40.306 97.758 106.137 97.758 66.007 0 98.475-65.483 108.791-96.183-14.363-13.227-31.373-24.174-52.103-34.225-39.042-13.575-97.647-5.183-111.062-.686z" fill="#f7f7f7"/></g></g></g></g></svg>