<svg enable-background="new 0 0 512 512" height="512" viewBox="0 0 512 512" width="512" xmlns="http://www.w3.org/2000/svg"><g id="Layer_1"><g><path d="m392.953 231.173c-3.863-137.544-48.785-181.042-135.861-181.355l-.005-.007c-.158 0-.312.003-.47.004-.158 0-.312-.004-.47-.004l-.005.007c-87.076.313-131.998 43.812-135.861 181.355-3.877 63.091 0 141.62 0 141.62s27.282-12.782 136.336-12.897c109.054.116 136.336 12.897 136.336 12.897s3.877-78.529 0-141.62z" fill="#240703"/><path d="m205.997 322.481h102.181v127.042h-102.181z" fill="#f3c690"/><g><path d="m205.997 322.481v46.994c12.877 14.067 35.535 31.851 65.023 27.021 16.048-2.629 28.154-9.219 37.157-16.775v-57.24z" fill="#eab57a"/></g><g fill="#f3c690"><path d="m354.821 231.491 8.271-27.653s14.553-4.222 22.228 12.138-12.409 49.975-29.736 52.799c-4.803-12.798-.763-37.284-.763-37.284z"/><path d="m161.277 231.491-8.271-27.653s-14.553-4.222-22.228 12.138 12.409 49.975 29.736 52.799c4.803-12.798.763-37.284.763-37.284z"/><path d="m362.513 231.566c.036-1.155.056-2.31.056-3.466 0-71.813 20.052-152.837-101.929-154.027-.561-.011-2.725-.028-2.731-.028s-2.17.016-2.731.028c-121.98 1.191-101.929 82.214-101.929 154.027 0 1.155.019 2.311.055 3.466s9.164 51.227 16.719 64.588c7.554 13.361 43.013 76.639 85.434 76.639.039-.041 4.939-.043 4.981 0 42.421 0 79.441-66.279 86.995-79.64s15.157-61.587 15.157-61.587z"/></g><path d="m419.99 465.232c-1.952-48.64-39.381-59.874-61.855-62.219-9.752-1.018-49.482-.362-49.482-.362-.951 16.284-20.301 31.878-50.554 32.463-30.253-.585-52.206-19.857-52.206-32.463 0 0-38.078-.656-47.83.362-22.474 2.345-59.903 13.579-61.856 62.219-1.68 12.13 0 29.458 0 29.458s54.704 16.743 158.096 17.302c.77.012 6.821.012 7.591 0 103.392-.559 158.096-17.302 158.096-17.302s1.68-17.328 0-29.458z" fill="#65afba"/><path d="m145.98 203.348c27.715 0 113.176-27.116 162.197-105.658 8.529 28.986 40.565 93.706 61.941 105.658 0-35.531 8.267-142.124-113.031-142.124s-112.034 129.893-111.107 142.124z" fill="#240703"/><g><path d="m213.352 464.868c-.791 0-1.576-.33-2.133-.978-23.081-26.807-24.55-59.451-24.598-60.825-.059-1.554 1.151-2.858 2.704-2.917 1.653-.139 2.858 1.151 2.917 2.704.015.319 1.488 32.098 23.242 57.366 1.015 1.176.883 2.953-.297 3.968-.53.459-1.182.682-1.835.682z" fill="#172526"/><path d="m324.032 432.976c-.612 0-1.231-.15-1.803-.465-1.817-.997-2.481-3.279-1.48-5.093 3.891-7.083 4.812-16.665 5.189-22.828.125-2.067 1.85-3.609 3.976-3.514 2.067.128 3.642 1.905 3.514 3.976-.059.971-.602 15.976-6.105 25.979-.683 1.241-1.969 1.945-3.291 1.945z" fill="#2e4241"/><path d="m348.893 498.637c-.619 0-1.238-.202-1.759-.616-1.213-.971-1.411-2.744-.44-3.957 1.392-3.067 5.328-37.517-5.203-51.416-4.851-6.401-11.264-10.179-18.548-10.923-8.112-.835-16.555 2.198-23.788 8.526-14.224 12.444-22.055 39.196-22.132 39.467-.429 1.488-1.986 2.349-3.485 1.924-1.491-.429-2.352-1.99-1.924-3.485.333-1.162 8.38-28.621 23.832-42.142 8.424-7.369 18.379-10.879 28.067-9.89 8.878.905 16.646 5.445 22.461 13.121 12.425 16.401 7.816 54.955 5.115 58.333-.555.696-1.372 1.058-2.196 1.058z" fill="#172526"/><circle cx="272.678" cy="482.456" fill="#697585" r="7.739"/><circle cx="348.033" cy="499.654" fill="#697585" r="7.739"/><path d="m342.034 443.591c-1.26 0-2.517-.506-3.441-1.502-13.173-14.235-27.965-6.804-28.591-6.478-2.283 1.18-5.119.308-6.321-1.975-1.202-2.279-.348-5.097 1.927-6.313 7.427-3.965 25.319-7.321 39.866 8.391 1.762 1.902 1.645 4.87-.253 6.628-.905.835-2.048 1.249-3.187 1.249z" fill="#2e4241"/><circle cx="218.98" cy="472.373" fill="#172526" r="23.451"/><circle cx="218.98" cy="472.373" fill="#697585" r="14.538"/></g><g><g><g><path d="m207.749 244.072c-12.241 4.347-47.229 32.228-47.231 32.229 9.414 29.788 36.776 94.51 96.844 94.51 60.228 0 89.853-63.307 99.265-92.988-13.105-12.787-28.626-23.371-47.541-33.088-35.623-13.124-89.097-5.01-101.337-.663z" fill="#f7f7f7"/></g></g><g fill="#f7f7f7"><path d="m363.107 200.978 1.814 2.37s-6.31 41.167-14.573 69.709c-5.222-2.621-7.014-5.78-7.014-5.78s15.102-61.931 19.773-66.299z"/><path d="m152.709 200.978-1.814 2.37s11.939 41.167 20.202 69.709c5.222-2.621 7.014-5.78 7.014-5.78s-20.73-61.931-25.402-66.299z"/></g></g></g></g></svg>