<svg enable-background="new 0 0 512 512" height="512" viewBox="0 0 512 512" width="512" xmlns="http://www.w3.org/2000/svg"><g id="Layer_1"><g><path d="m391.964 238.256c-3.848-137.017-48.598-180.349-135.341-180.66l-.005-.007c-.157 0-.311.003-.468.004-.157 0-.311-.004-.468-.004l-.005.007c-86.742.312-131.493 43.644-135.341 180.66-3.862 62.849 0 134.384 0 134.384s27.178 10.755 135.814 10.639c108.636.115 135.814-10.639 135.814-10.639s3.862-71.535 0-134.384z" fill="#240703"/><g fill="#f9d7aa"><path d="m367.851 231.842 9.428-27.547s16.589-4.206 25.338 12.091-14.145 49.783-33.896 52.596c-5.475-12.747-.87-37.14-.87-37.14z"/><path d="m147.231 231.842-9.428-27.547s-16.589-4.206-25.338 12.091 14.145 49.783 33.896 52.596c5.475-12.747.87-37.14.87-37.14z"/><path d="m207.177 320.002h101.789v126.555h-101.789z"/></g><g><path d="m207.177 320.002v46.814c12.828 14.013 35.399 31.729 64.774 26.917 15.987-2.619 28.046-9.184 37.015-16.71v-57.021z" fill="#e8ac6b"/></g><path d="m376.618 231.917c.041-1.151.063-2.301.063-3.452 0-71.538 22.857-152.251-116.188-153.437-.639-.011-3.106-.028-3.113-.028s-2.474.016-3.113.028c-139.045 1.186-116.188 81.899-116.188 153.437 0 1.151.022 2.302.063 3.452s10.446 51.031 19.057 64.341 49.03 76.345 97.386 76.345c.045-.041 5.63-.043 5.677 0 48.355 0 90.554-66.025 99.165-79.335s17.278-61.351 17.278-61.351z" fill="#f9d7aa"/><path d="m420.563 464.922c-1.945-48.454-39.231-59.645-61.618-61.981-9.714-1.014-49.293-.36-49.293-.36-.948 16.221-20.224 31.756-50.361 32.338-30.137-.583-52.007-19.781-52.007-32.338 0 0-37.932-.653-47.646.36-22.388 2.336-59.674 13.527-61.619 61.981-1.673 12.083 0 29.345 0 29.345s54.495 16.679 157.491 17.235c.767.012 6.795.012 7.562 0 102.996-.556 157.491-17.235 157.491-17.235s1.673-17.261 0-29.345z" fill="#f7f7f7"/><g><path d="m309.454 402.649c-.948 16.221-20.223 24.922-50.361 25.504-30.137-.583-52.007-12.947-52.007-25.504 0 0-4.849-.083-11.512-.144l42.353 108.812c5.634.134 11.424.222 17.384.254.767.012 6.795.012 7.562 0 5.592-.03 11.031-.111 16.336-.231l41.893-108.84c-7.239.061-11.648.149-11.648.149z" fill="#15a8c2"/></g><path d="m385.288 203.807c0-34.676 19.248-148.58-129.56-148.58-150.157 0-128.999 135.205-127.931 147.142 0 0 11.231-2.576 14.755 20.981 8.674-6.051 14.606-27.936 15.502-60.119 18.919-20.597 33.339-14.161 55.093-64.366 11.456 18.023 25.617 75.952 141.476 55.355 7.724 0 20.259 16.787 11.417 49.588-2.406 19.928-1.59 24.534 4.806 31.462-.267-6.396-5.971-31.587 14.442-31.463z" fill="#240703"/><path d="m337.755 402.402 4.565-.028-2.774 46.46-19.634-.221 15.391 14.136-39.79 48.019-4.346.166 39.083-47.554-17.535-18.278 23.182-1.338z" fill="#ccc"/><path d="m321.102 402.5h19.337s-1.263 16.547-2.602 44.294c-13.347 0-21.438 0-21.438 0l16.625 16.278-40.02 47.782-13.02.409-14.956.192z" fill="#f7f7f7"/><path d="m178.648 402.402-4.565-.028 2.773 46.46 19.634-.221-15.39 14.136 39.79 48.019 4.346.166-39.083-47.554 17.535-18.278-23.182-1.338z" fill="#ccc"/><path d="m195.301 402.5h-19.337s1.263 16.547 2.602 44.294h21.438l-16.625 16.278 40.02 47.782 13.02.409 14.956.192z" fill="#f7f7f7"/><g><path d="m213.316 464.56c-.788 0-1.57-.329-2.124-.975-22.992-26.704-24.456-59.223-24.503-60.592-.058-1.548 1.146-2.847 2.694-2.906 1.646-.139 2.847 1.146 2.906 2.694.015.318 1.482 31.975 23.153 57.146 1.011 1.172.88 2.942-.296 3.953-.53.458-1.18.68-1.83.68z" fill="#172526"/><path d="m323.572 432.79c-.61 0-1.226-.15-1.796-.464-1.81-.993-2.471-3.267-1.475-5.074 3.876-7.056 4.794-16.601 5.169-22.74.124-2.059 1.843-3.595 3.96-3.5 2.059.128 3.628 1.898 3.5 3.96-.058.967-.6 15.915-6.082 25.88-.677 1.237-1.959 1.938-3.276 1.938z" fill="#2e4241"/><path d="m348.338 498.2c-.617 0-1.234-.201-1.752-.613-1.208-.967-1.405-2.734-.438-3.942 1.387-3.055 5.307-37.374-5.183-51.219-4.833-6.377-11.221-10.14-18.477-10.881-8.081-.832-16.491 2.19-23.697 8.494-14.17 12.396-21.97 39.045-22.047 39.316-.427 1.482-1.978 2.34-3.471 1.916-1.486-.427-2.343-1.982-1.916-3.471.332-1.157 8.348-28.511 23.74-41.98 8.392-7.34 18.309-10.837 27.96-9.852 8.844.902 16.583 5.424 22.375 13.071 12.378 16.338 7.786 54.745 5.096 58.11-.555.69-1.369 1.051-2.19 1.051z" fill="#172526"/><circle cx="272.415" cy="482.081" fill="#697585" r="7.709"/><circle cx="347.481" cy="499.212" fill="#697585" r="7.709"/><path d="m341.505 443.364c-1.256 0-2.508-.504-3.427-1.497-13.122-14.181-27.858-6.778-28.482-6.453-2.274 1.175-5.099.307-6.296-1.967-1.197-2.27-.347-5.077 1.92-6.289 7.399-3.949 25.222-7.293 39.713 8.359 1.756 1.894 1.639 4.851-.252 6.603-.902.832-2.041 1.244-3.176 1.244z" fill="#2e4241"/><circle cx="218.923" cy="472.036" fill="#172526" r="23.361"/><circle cx="218.923" cy="472.036" fill="#697585" r="14.482"/></g></g></g></svg>