<svg enable-background="new 0 0 512 512" height="512" viewBox="0 0 512 512" width="512" xmlns="http://www.w3.org/2000/svg"><g id="Layer_1"><g><path d="m254.067 45.594c-34.006-10.415-90.046.719-117.271 42.677-23.434 36.115-110.597 173.443 85.281 392.167 85.734-32.361 224.52-122.381 180.254-328.086-4.834-54.77-49.925-136.894-148.264-106.758z" fill="#2d1108"/><path d="m204.866 320.086h102.944v127.991h-102.944z" fill="#e09f67"/><g><path d="m204.866 320.086v47.345c12.973 14.172 35.8 32.089 65.509 27.223 16.168-2.648 28.364-9.288 37.435-16.9v-57.668z" fill="#ce8a57"/></g><path d="m159.812 228.416-8.333-27.86s-14.662-4.253-22.394 12.229c-7.733 16.482 12.502 50.348 29.958 53.193 4.839-12.892.769-37.562.769-37.562z" fill="#e09f67"/><path d="m362.551 228.492c.037-1.164.056-2.328.056-3.492 0-72.35 20.201-153.978-102.69-155.178-.565-.012-2.745-.028-2.751-.028s-2.187.017-2.752.028c-122.892 1.199-102.69 82.828-102.69 155.178 0 1.164.019 2.328.056 3.492s9.233 51.61 16.843 65.071c7.611 13.461 43.334 77.211 86.072 77.211.039-.041 4.976-.043 5.018 0 42.738 0 80.034-66.774 87.645-80.235s15.27-62.047 15.27-62.047z" fill="#e09f67"/><path d="m419.439 463.904c-1.967-49.004-39.676-60.322-62.318-62.684-9.824-1.025-49.852-.364-49.852-.364-8.46 13.218-20.99 19.28-51.469 19.869-30.479-.589-42.81-7.722-52.059-19.869 0 0-38.363-.661-48.187.364-22.642 2.363-60.351 13.681-62.318 62.684-1.692 12.221 0 29.678 0 29.678s55.113 16.868 159.278 17.431c.775.012 6.872.012 7.648 0 104.165-.563 159.278-17.431 159.278-17.431s1.691-17.458-.001-29.678z" fill="#15a8c2"/><path d="m369.754 200.208c0-35.069 10.186-141.876-114.199-141.876s-112.578 129.856-104.362 142.152c0 0 57.275-45.528 71.751-108.021 8.4 40.794 79.488 112.34 146.81 107.745z" fill="#2d1108"/><path d="m354.802 228.416 8.333-27.86s14.662-4.253 22.394 12.229c7.733 16.482-12.502 50.348-29.958 53.193-4.839-12.892-.769-37.562-.769-37.562z" fill="#e09f67"/><g><path d="m400.834 141.165h-290.804l12.732-26.639h270.935z" fill="#fefefe"/><g><circle cx="256.713" cy="129.408" fill="#d8d8d8" r="48.968"/><circle cx="256.713" cy="129.408" fill="#e9e9eb" r="40.633"/><circle cx="256.713" cy="129.408" fill="#d8d8d8" r="13.544"/></g></g><g><path d="m335.854 436.571h8.933v10.37h-8.933z" fill="#f4f4f4"/><path d="m374.37 473.993c0 3.984-3.23 7.214-7.214 7.214h-53.672c-3.984 0-7.214-3.23-7.214-7.214v-23.065c0-3.984 3.23-7.214 7.214-7.214h53.672c3.984 0 7.214 3.23 7.214 7.214z" fill="#fff"/><g fill="#bfbfbf"><path d="m313.977 451.449h15.846v21.642h-15.846z"/><path d="m332.79 451.449h32.437v4.649h-32.437z"/><path d="m332.79 459.946h32.437v4.649h-32.437z"/><path d="m332.79 468.442h21.207v4.649h-21.207z"/></g></g></g></g></svg>