<svg enable-background="new 0 0 512 512" height="512" viewBox="0 0 512 512" width="512" xmlns="http://www.w3.org/2000/svg"><g id="Layer_1"><g><path d="m255.312 54.119h-1.113c-52.929 0-153.927-27.378-153.926 150.447 0 156.946 19.833 228.536 19.833 228.536h64.961 139.379 64.961s15.999-63.436 19.674-220.339c4.336-185.154-100.84-158.644-153.769-158.644z" fill="#240703"/><path d="m366.412 229.347 9.529-27.843s16.767-4.251 25.61 12.221-14.297 50.318-34.26 53.162c-5.533-12.885-.879-37.54-.879-37.54z" fill="#a34a17"/><path d="m143.422 229.347-9.529-27.843s-16.767-4.251-25.61 12.221 14.297 50.318 34.26 53.162c5.534-12.885.879-37.54.879-37.54z" fill="#a34a17"/><path d="m204.012 318.454h102.883v172.307h-102.883z" fill="#974216"/><g><path d="m204.012 318.454v47.317c12.965 14.164 35.779 32.07 65.47 27.207 16.158-2.647 28.347-9.283 37.413-16.89v-57.634z" fill="#661c05"/></g><path d="m375.274 229.423c.042-1.163.064-2.326.064-3.49 0-72.307 23.102-153.887-117.437-155.086-.646-.012-3.14-.028-3.146-.028-.007 0-2.501.017-3.147.028-140.539 1.199-117.436 82.779-117.436 155.086 0 1.163.022 2.327.064 3.49s10.558 51.579 19.262 65.032 49.557 77.166 98.432 77.166c.045-.041 5.691-.043 5.738 0 48.875 0 91.527-66.735 100.231-80.188s17.463-62.01 17.463-62.01z" fill="#a34a17"/><g><path d="m419.285 464.695c-1.966-48.975-39.652-60.286-62.28-62.647-9.819-1.025-49.822-.364-49.822-.364s-38.334 83.252-50.902 83.252c-12.309 0-52.565-83.252-52.565-83.252s-38.34-.66-48.158.364c-22.628 2.361-60.315 13.673-62.281 62.647-1.691 12.213 0 29.66 0 29.66s55.08 16.858 159.183 17.42c.775.012 6.868.012 7.643 0 104.103-.562 159.183-17.42 159.183-17.42s1.691-17.447-.001-29.66z" fill="#65afba"/></g><path d="m133.959 212.763c8.103-27.364 7.093-76.808 72.656-76.808s95.996-12.026 109.803-32.529c1.301 27.324 9.108 59.853 41.637 74.166 13.012 7.807 19.71 18.587 14.034 35.171 10.5-11.689 39.911-63.853 18.892-116.277-21.216-52.914-118.803-113.712-200.775-40.77-36.432-2.525-63.757 13.007-81.973 60.285s25.726 96.762 25.726 96.762z" fill="#240703"/><g><path d="m204.432 464.329c-.797 0-1.586-.332-2.147-.985-23.239-26.991-24.719-59.86-24.767-61.243-.059-1.564 1.158-2.878 2.723-2.937 1.664-.14 2.878 1.158 2.937 2.723.015.321 1.498 32.319 23.402 57.76 1.022 1.184.889 2.974-.299 3.996-.536.461-1.192.686-1.849.686z" fill="#172526"/><path d="m315.872 432.217c-.616 0-1.24-.151-1.815-.469-1.83-1.004-2.498-3.302-1.491-5.128 3.918-7.132 4.845-16.779 5.225-22.985.125-2.081 1.863-3.634 4.003-3.538 2.081.129 3.667 1.918 3.538 4.003-.059.978-.606 16.086-6.147 26.158-.686 1.25-1.981 1.959-3.313 1.959z" fill="#2e4241"/><path d="m340.904 498.33c-.624 0-1.247-.203-1.771-.62-1.221-.978-1.42-2.763-.443-3.984 1.402-3.088 5.364-37.775-5.239-51.769-4.885-6.445-11.341-10.249-18.675-10.998-8.168-.841-16.668 2.214-23.951 8.585-14.322 12.529-22.206 39.465-22.284 39.738-.432 1.498-2 2.365-3.509 1.937-1.502-.432-2.369-2.003-1.937-3.509.336-1.17 8.438-28.818 23.996-42.431 8.482-7.419 18.506-10.954 28.26-9.958 8.939.911 16.761 5.482 22.616 13.212 12.511 16.514 7.869 55.333 5.15 58.734-.56.698-1.383 1.063-2.213 1.063z" fill="#172526"/><circle cx="264.166" cy="482.038" fill="#697585" r="7.792"/><circle cx="340.039" cy="499.353" fill="#697585" r="7.792"/><path d="m333.998 442.905c-1.269 0-2.535-.509-3.464-1.513-13.263-14.333-28.157-6.851-28.788-6.523-2.298 1.188-5.154.31-6.364-1.989-1.21-2.295-.35-5.132 1.941-6.357 7.478-3.992 25.493-7.371 40.14 8.449 1.775 1.915 1.657 4.903-.255 6.674-.912.842-2.063 1.259-3.21 1.259z" fill="#2e4241"/><circle cx="210.099" cy="471.885" fill="#172526" r="23.612"/><circle cx="210.099" cy="471.885" fill="#697585" r="14.638"/></g><g><path d="m134.214 215.028c8.807 8.927 19.14 29.268 34.042 50.327 3.605-1.613 4.046-3.345 4.046-3.345s-29.505-44.937-39.498-58.003c-4.585-4.054-7.006-1.973-7.006-1.973 2.272 4.047 8.416 12.994 8.416 12.994z" fill="#f7f7f7"/><path d="m373.437 214.539c-8.807 8.927-19.14 29.268-34.042 50.327-3.605-1.613-4.046-3.345-4.046-3.345s29.505-44.937 39.498-58.003c4.585-4.054 7.006-1.973 7.006-1.973-2.271 4.047-8.416 12.994-8.416 12.994z" fill="#f7f7f7"/><g><path d="m198.784 246.419c-13.38 4.484-51.626 33.248-51.628 33.249 10.29 30.732 40.2 97.503 105.86 97.503 65.835 0 98.218-65.312 108.507-95.932-14.325-13.192-31.291-24.111-51.967-34.135-38.939-13.54-97.391-5.169-110.772-.685z" fill="#f7f7f7"/></g></g></g></g></svg>