<svg enable-background="new 0 0 512 512" height="512" viewBox="0 0 512 512" width="512" xmlns="http://www.w3.org/2000/svg"><g id="Layer_1"><g><path d="m144.509 366.784s37.903-21.419 109.949-21.419 128.289 21.419 128.289 21.419l19.41-143.254-294.11 12.7z" fill="#240703"/><g fill="#f3c690"><path d="m365.163 231.639 9.508-27.78s16.729-4.241 25.552 12.193-14.265 50.203-34.181 53.04c-5.523-12.854-.879-37.453-.879-37.453z"/><path d="m142.683 231.639-9.508-27.78s-16.729-4.241-25.552 12.193 14.265 50.203 34.181 53.04c5.522-12.854.879-37.453.879-37.453z"/><path d="m203.134 320.542h102.648v127.623h-102.648z"/></g><g><path d="m203.134 320.542v47.209c12.936 14.132 35.697 31.997 65.321 27.144 16.121-2.641 28.283-9.261 37.327-16.851v-57.502z" fill="#eab57a"/></g><path d="m374.004 231.715c.042-1.16.064-2.321.064-3.482 0-72.141 23.05-153.535-117.168-154.731-.645-.012-3.133-.028-3.139-.028-.007 0-2.495.016-3.14.028-140.217 1.196-117.168 82.59-117.168 154.731 0 1.161.022 2.321.064 3.482s10.534 51.462 19.218 64.883 49.444 76.989 98.207 76.989c.045-.041 5.678-.043 5.725 0 48.763 0 91.318-66.582 100.002-80.004s17.423-61.868 17.423-61.868z" fill="#f3c690"/><path d="m416.91 463.866c-1.95-48.587-39.338-59.809-61.787-62.151-9.741-1.017-49.428-.361-49.428-.361-.95 16.266-20.279 31.843-50.499 32.427-30.22-.584-52.149-19.835-52.149-32.427 0 0-38.036-.655-47.777.361-22.449 2.342-59.838 13.564-61.788 62.151-1.678 12.117 0 29.426 0 29.426s54.644 16.725 157.923 17.283c.769.012 6.814.012 7.583 0 103.279-.558 157.923-17.283 157.923-17.283s1.677-17.31-.001-29.426z" fill="#15a8c2"/><path d="m157.399 384.354c-10.542-22.833-42.684-145.476-11.057-236.14 27.412-2.839 65.032-25.538 82.744-50.25 16.868 23.193 50.999 62.813 129.704 58.596 11.89 48.581 39.643 104.462 4.546 227.795 30.21.361 53.403-10.648 70.271-26.228 10.542-30.34 26.397-175.964-31.451-252.373-49.485-65.367-111.798-67.98-188.391-62.314-61.556 4.553-108.077 46.735-131.116 127.222-22.42 78.324-8.177 173.585 8.043 187.464 16.219 13.878 66.707 26.228 66.707 26.228z" fill="#240703"/><g><path d="m253.348 445.861c45.052 0 63.967-24.01 65.218-44.706-7.409.062-12.907.152-12.907.152-.955 16.344-20.376 31.996-50.741 32.583-30.365-.587-52.399-19.93-52.399-32.583 0 0-5.856-.1-13.563-.162.035 15.399 17.776 44.716 64.392 44.716z" fill="#0e97a5"/></g><g><path d="m340.172 443.009h8.907v10.34h-8.907z" fill="#f4f4f4"/><path d="m378.577 480.323c0 3.973-3.221 7.193-7.193 7.193h-53.517c-3.973 0-7.193-3.22-7.193-7.193v-22.999c0-3.973 3.22-7.193 7.193-7.193h53.517c3.973 0 7.193 3.22 7.193 7.193z" fill="#fff"/><g fill="#bfbfbf"><path d="m318.358 457.845h15.8v21.58h-15.8z"/><path d="m337.116 457.844h32.343v4.636h-32.343z"/><path d="m337.116 466.316h32.343v4.636h-32.343z"/><path d="m337.116 474.788h21.146v4.636h-21.146z"/></g></g><g><path d="m208.074 461.399c-.795 0-1.583-.331-2.142-.983-23.186-26.93-24.662-59.723-24.71-61.103-.059-1.561 1.156-2.871 2.717-2.93 1.66-.14 2.871 1.156 2.93 2.717.015.32 1.494 32.245 23.348 57.628 1.02 1.182.887 2.967-.298 3.986-.535.461-1.19.685-1.845.685z" fill="#172526"/><path d="m319.259 429.36c-.615 0-1.237-.151-1.811-.467-1.826-1.001-2.492-3.294-1.487-5.116 3.909-7.115 4.834-16.741 5.213-22.932.125-2.076 1.859-3.626 3.994-3.53 2.076.129 3.659 1.914 3.53 3.994-.059.975-.605 16.049-6.133 26.098-.685 1.247-1.977 1.953-3.306 1.953z" fill="#2e4241"/><path d="m344.234 495.322c-.622 0-1.244-.202-1.767-.618-1.218-.975-1.417-2.757-.442-3.975 1.399-3.081 5.352-37.689-5.227-51.651-4.874-6.431-11.315-10.226-18.633-10.973-8.15-.839-16.63 2.209-23.896 8.565-14.289 12.5-22.155 39.375-22.233 39.647-.431 1.494-1.995 2.359-3.501 1.932-1.498-.431-2.363-1.999-1.932-3.501.335-1.167 8.418-28.752 23.941-42.334 8.462-7.402 18.463-10.929 28.196-9.935 8.919.909 16.722 5.47 22.564 13.181 12.482 16.476 7.851 55.206 5.139 58.6-.56.698-1.381 1.062-2.209 1.062z" fill="#172526"/><circle cx="267.671" cy="479.067" fill="#697585" r="7.774"/><circle cx="343.37" cy="496.343" fill="#697585" r="7.774"/><path d="m337.343 440.024c-1.266 0-2.529-.508-3.456-1.509-13.233-14.3-28.093-6.835-28.722-6.508-2.293 1.185-5.142.309-6.35-1.984-1.207-2.29-.35-5.12 1.936-6.342 7.461-3.983 25.435-7.354 40.048 8.429 1.771 1.91 1.653 4.892-.254 6.659-.909.839-2.057 1.255-3.202 1.255z" fill="#2e4241"/><circle cx="213.728" cy="468.938" fill="#172526" r="23.558"/><circle cx="213.728" cy="468.938" fill="#697585" r="14.605"/></g></g></g></svg>