<svg enable-background="new 0 0 512 512" height="512" viewBox="0 0 512 512" width="512" xmlns="http://www.w3.org/2000/svg"><g id="Layer_1"><g><path d="m226.329 299.006-53.117 31.269 22.891 36.48s98.276-3.909 125.636 0c14.983-27.36 22.355-51.673 22.355-51.673z"/><path d="m204.499 323.36h103.019v128.084h-103.019z" fill="#f9d7aa"/><g><path d="m204.499 323.36v47.379c12.983 14.183 35.826 32.112 65.557 27.242 16.18-2.65 28.385-9.295 37.462-16.912v-57.71h-103.019z" fill="#e8ac6b"/></g><g fill="#f9d7aa"><path d="m354.544 231.624 8.339-27.88s14.672-4.256 22.411 12.237c7.738 16.494-12.511 50.384-29.98 53.232-4.843-12.902-.77-37.589-.77-37.589z"/><path d="m159.412 231.624-8.339-27.88s-14.672-4.256-22.411 12.237 12.511 50.384 29.98 53.232c4.843-12.902.77-37.589.77-37.589z"/><path d="m362.298 231.7c.037-1.165.056-2.329.056-3.494 0-72.402 20.216-154.09-102.765-155.29-.565-.012-2.747-.028-2.753-.028s-2.188.017-2.754.028c-122.981 1.2-102.765 82.888-102.765 155.29 0 1.165.019 2.33.056 3.494s9.239 51.648 16.856 65.118 43.366 77.267 86.135 77.267c.039-.041 4.98-.044 5.021 0 42.769 0 80.092-66.823 87.709-80.293 7.616-13.47 15.282-62.092 15.282-62.092z"/></g><path d="m420.248 464.848c-1.968-49.039-39.704-60.365-62.363-62.73-9.832-1.026-49.888-.365-49.888-.365-.959 16.417-20.468 32.139-50.969 32.729-30.501-.59-52.635-20.02-52.635-32.729 0 0-38.39-.661-48.222.365-22.658 2.364-60.395 13.691-62.363 62.73-1.693 12.229 0 29.7 0 29.7s55.153 16.88 159.393 17.443c.776.012 6.877.012 7.653 0 104.24-.563 159.393-17.443 159.393-17.443s1.694-17.471.001-29.7z" fill="#7dd5de"/><path d="m214.904 97.06c20.846 10.423 48.206 58.629 115.956 88.595 32.023 18.088 12.948 103.519-9.12 181.099 37.783-32.572 83.384-125.076 70.355-213.671s-135.462-162.282-187.596-87.292c-37.801-3.909-104.247 29.453-89.916 144.619 9.12 91.714 45.946 131.259 81.521 156.345-17.68-70.355-75.007-191.522 18.8-269.695z" fill="#240703"/><g><path d="m255.593 447.045c45.215 0 64.198-24.096 65.454-44.867-7.436.062-12.953.153-12.953.153-.958 16.403-20.45 32.112-50.925 32.7-30.475-.589-52.589-20.002-52.589-32.7 0 0-5.878-.101-13.612-.163.036 15.454 17.841 44.877 64.625 44.877z" fill="#6ac7cc"/></g><g><path d="m211.602 462.639c-.798 0-1.589-.332-2.15-.986-23.27-27.027-24.751-59.939-24.799-61.324-.059-1.566 1.16-2.881 2.726-2.941 1.666-.14 2.881 1.16 2.941 2.726.015.321 1.5 32.361 23.432 57.837 1.023 1.186.89 2.978-.299 4.001-.535.461-1.193.687-1.851.687z" fill="#172526"/><path d="m323.189 430.484c-.617 0-1.241-.151-1.818-.469-1.832-1.005-2.501-3.306-1.492-5.135 3.923-7.141 4.851-16.801 5.232-23.015.126-2.084 1.866-3.639 4.008-3.543 2.084.129 3.672 1.921 3.543 4.008-.059.979-.607 16.107-6.155 26.192-.687 1.253-1.984 1.962-3.318 1.962z" fill="#2e4241"/><path d="m348.255 496.685c-.624 0-1.249-.203-1.773-.621-1.223-.979-1.422-2.767-.443-3.99 1.404-3.092 5.371-37.825-5.246-51.837-4.891-6.454-11.356-10.263-18.7-11.012-8.179-.842-16.69 2.217-23.983 8.596-14.341 12.546-22.236 39.517-22.313 39.79-.432 1.5-2.002 2.368-3.513 1.939-1.504-.432-2.372-2.006-1.939-3.513.336-1.171 8.449-28.856 24.027-42.487 8.493-7.429 18.53-10.968 28.298-9.971 8.951.912 16.783 5.49 22.646 13.229 12.527 16.535 7.88 55.406 5.157 58.812-.563.699-1.387 1.065-2.218 1.065z" fill="#172526"/><circle cx="271.415" cy="480.371" fill="#697585" r="7.802"/><circle cx="347.388" cy="497.709" fill="#697585" r="7.802"/><path d="m341.339 441.186c-1.271 0-2.538-.51-3.469-1.515-13.281-14.352-28.194-6.86-28.826-6.531-2.302 1.19-5.161.31-6.373-1.991-1.212-2.298-.351-5.139 1.943-6.365 7.488-3.997 25.527-7.381 40.193 8.46 1.777 1.917 1.659 4.91-.255 6.683-.911.842-2.064 1.259-3.213 1.259z" fill="#2e4241"/><circle cx="217.277" cy="470.205" fill="#172526" r="23.643"/><circle cx="217.277" cy="470.205" fill="#697585" r="14.657"/></g></g></g></svg>