<svg enable-background="new 0 0 512 512" height="512" viewBox="0 0 512 512" width="512" xmlns="http://www.w3.org/2000/svg"><g id="Layer_1"><g><path d="m262.101 235.319-122.778 21.246s-13.649 51.157 25.221 94.252 85.788 97.698 85.788 97.698c38.273-35.015 64.391-82.85 94.427-106.598s41.994-72.139 26.22-89.732c-54.95-8.453-108.878-16.866-108.878-16.866z" fill="#240703"/><g fill="#e09f67"><path d="m366.407 230.7 9.564-27.945s16.828-4.266 25.704 12.266-14.35 50.502-34.385 53.355c-5.554-12.931-.883-37.676-.883-37.676z"/><path d="m142.604 230.7-9.564-27.945s-16.828-4.266-25.704 12.266 14.35 50.502 34.385 53.355c5.554-12.931.883-37.676.883-37.676z"/><path d="m203.415 320.132h103.258v128.382h-103.258z"/></g><g><path d="m203.415 320.132v47.49c13.013 14.216 35.91 32.187 65.709 27.306 16.217-2.656 28.451-9.316 37.549-16.952v-57.844z" fill="#ce8a57"/></g><path d="m375.301 230.776c.042-1.167.064-2.335.064-3.502 0-72.57 23.187-154.448-117.865-155.651-.648-.012-3.151-.028-3.158-.028s-2.51.017-3.158.028c-141.051 1.203-117.864 83.08-117.864 155.651 0 1.168.022 2.335.064 3.502s10.597 51.768 19.332 65.269 49.738 77.447 98.791 77.447c.045-.041 5.711-.044 5.759 0 49.053 0 91.861-66.978 100.596-80.48 8.736-13.502 17.527-62.236 17.527-62.236z" fill="#e09f67"/><path d="m131.9 202.538c1.848-.277 1.302 5.935 7.832 11.158 1.306-18.283 8.897-62.683 67.785-78.354s98.065-14.365 121.571-41.789c10.447 20.894 30.036 24.812 33.3 53.542 3.265 28.73 3.599 50.342 9.516 70.224 2.492-10.127 4.067-14.565 4.067-14.565s4.09-.482 8.124-.494c1.581-15.118 17.751-103.048-7.311-125.684-25.061-22.636-47.697-4.982-47.697-4.982-6.965-15.912-36.565-44.642-95.331-36.806s-134.5 41.672-101.856 167.75z" fill="#240703"/><path d="m419.88 464.669c-1.973-49.153-39.797-60.506-62.508-62.876-9.854-1.028-50.004-.366-50.004-.366-.961 16.455-20.515 32.214-51.088 32.805-30.572-.591-52.757-20.067-52.757-32.805 0 0-38.48-.663-48.334.366-22.711 2.37-60.535 13.722-62.508 62.876-1.697 12.258 0 29.769 0 29.769s55.281 16.92 159.764 17.484c.778.012 6.893.012 7.671 0 104.483-.564 159.764-17.484 159.764-17.484s1.697-17.511 0-29.769z" fill="#f7f7f7"/><g><path d="m307.167 401.497c-.961 16.455-20.515 25.281-51.087 25.872-30.572-.591-52.757-13.134-52.757-25.872 0 0-4.919-.084-11.678-.146l42.964 110.382c5.715.136 11.589.225 17.635.258.778.012 6.893.012 7.671 0 5.672-.031 11.191-.112 16.572-.234l42.496-110.411c-7.343.062-11.816.151-11.816.151z" fill="#7dd5de"/></g><path d="m335.876 401.247 4.632-.029-2.814 47.13-19.918-.224 15.613 14.34-40.364 48.713-4.409.168 39.647-48.24-17.788-18.542 23.517-1.357z" fill="#ccc"/><path d="m318.983 401.346h19.617s-1.281 16.786-2.639 44.933c-13.54 0-21.747 0-21.747 0l16.865 16.513-40.597 48.471-13.208.414-15.172.194z" fill="#f7f7f7"/><path d="m174.474 401.247-4.632-.029 2.814 47.13 19.918-.224-15.613 14.34 40.364 48.713 4.409.168-39.647-48.24 17.788-18.542-23.517-1.357z" fill="#ccc"/><path d="m191.367 401.346h-19.617s1.281 16.786 2.639 44.933h21.747l-16.865 16.513 40.597 48.471 13.208.414 15.172.194z" fill="#f7f7f7"/><g><path d="m209.642 463.247c-.8 0-1.592-.333-2.155-.989-23.324-27.09-24.809-60.078-24.857-61.467-.059-1.57 1.163-2.888 2.733-2.947 1.67-.141 2.888 1.163 2.947 2.733.015.322 1.503 32.437 23.487 57.971 1.026 1.189.892 2.984-.3 4.01-.536.464-1.196.689-1.855.689z" fill="#172526"/><path d="m321.489 431.018c-.618 0-1.244-.152-1.822-.47-1.837-1.007-2.507-3.314-1.496-5.147 3.932-7.158 4.863-16.841 5.244-23.069.126-2.088 1.87-3.647 4.018-3.551 2.088.13 3.681 1.925 3.551 4.018-.059.981-.608 16.144-6.17 26.253-.689 1.255-1.989 1.966-3.325 1.966z" fill="#2e4241"/><path d="m346.612 497.372c-.626 0-1.252-.204-1.777-.622-1.226-.981-1.426-2.773-.444-3.999 1.407-3.099 5.384-37.913-5.258-51.958-4.902-6.469-11.382-10.286-18.744-11.038-8.198-.844-16.729 2.222-24.039 8.616-14.374 12.575-22.287 39.609-22.365 39.883-.433 1.503-2.007 2.374-3.521 1.944-1.507-.433-2.377-2.011-1.944-3.521.337-1.174 8.468-28.923 24.083-42.586 8.513-7.446 18.573-10.994 28.363-9.994 8.972.915 16.822 5.502 22.698 13.26 12.556 16.574 7.898 55.535 5.169 58.949-.562.7-1.388 1.066-2.221 1.066z" fill="#172526"/><circle cx="269.594" cy="481.021" fill="#697585" r="7.82"/><circle cx="345.743" cy="498.399" fill="#697585" r="7.82"/><path d="m339.681 441.745c-1.274 0-2.544-.511-3.477-1.518-13.312-14.385-28.26-6.876-28.893-6.547-2.307 1.192-5.173.311-6.387-1.996-1.215-2.303-.352-5.151 1.948-6.38 7.506-4.006 25.586-7.398 40.286 8.479 1.781 1.922 1.663 4.921-.255 6.698-.916.846-2.071 1.264-3.222 1.264z" fill="#2e4241"/><circle cx="215.33" cy="470.831" fill="#172526" r="23.698"/><circle cx="215.33" cy="470.831" fill="#697585" r="14.691"/></g><g><path d="m371.904 217.32c-8.91 8.96-19.369 26.26-34.445 47.395-3.647-1.619-7.41-1.658-7.41-1.658s29.85-45.101 39.96-58.214c4.639-4.069 6.177-2.109 6.177-2.109-2.299 4.06-4.282 14.586-4.282 14.586z" fill="#f7f7f7"/><path d="m136.181 217.32c8.91 8.96 19.369 26.26 34.445 47.395 3.647-1.619 7.41-1.658 7.41-1.658s-29.85-45.101-39.96-58.214c-4.639-4.069-6.176-2.109-6.176-2.109 2.298 4.06 4.281 14.586 4.281 14.586z" fill="#f7f7f7"/><g><path d="m197.736 247.409c-13.537 4.501-52.23 33.369-52.231 33.371 10.411 30.844 40.67 97.858 107.098 97.858 66.605 0 99.367-65.55 109.776-96.282-14.493-13.24-31.657-24.199-52.575-34.26-39.395-13.589-98.531-5.188-112.068-.687z" fill="#f7f7f7"/></g></g></g></g></svg>