<svg enable-background="new 0 0 512 512" height="512" viewBox="0 0 512 512" width="512" xmlns="http://www.w3.org/2000/svg"><g id="Layer_1"><g><path d="m202.752 322.825h103.311v128.448h-103.311z" fill="#974216"/><g><path d="m202.752 322.825v47.514c13.019 14.223 35.928 32.204 65.743 27.32 16.226-2.658 28.465-9.321 37.568-16.96v-57.874z" fill="#661c05"/></g><g fill="#a34a17"><path d="m353.223 230.828 8.363-27.959s14.714-4.269 22.474 12.272-12.547 50.527-30.065 53.383c-4.856-12.938-.772-37.696-.772-37.696z"/><path d="m157.538 230.828-8.363-27.959s-14.714-4.269-22.474 12.272 12.547 50.527 30.065 53.383c4.856-12.938.772-37.696.772-37.696z"/><path d="m361 230.904c.037-1.168.056-2.336.056-3.504 0-72.608 20.274-154.528-103.057-155.731-.567-.012-2.755-.028-2.761-.028s-2.194.017-2.762.028c-123.33 1.203-103.056 83.123-103.056 155.731 0 1.168.02 2.336.056 3.504s9.266 51.794 16.904 65.303 43.489 77.487 86.379 77.487c.04-.041 4.994-.044 5.036 0 42.89 0 80.32-67.013 87.958-80.521 7.638-13.509 15.325-62.268 15.325-62.268h-.078z"/></g><path d="m418.091 464.714c-1.974-49.178-39.817-60.537-62.54-62.908-9.859-1.029-50.03-.366-50.03-.366-8.49 13.265-21.065 19.349-51.653 19.94-30.588-.591-42.963-7.749-52.245-19.94 0 0-38.499-.663-48.359.366-22.723 2.371-60.566 13.73-62.54 62.908-1.698 12.264 0 29.784 0 29.784s55.31 16.928 159.846 17.493c.778.012 6.897.012 7.675 0 104.536-.565 159.846-17.493 159.846-17.493s1.698-17.52 0-29.784z" fill="#15a8c2"/><path d="m394.268 130.807c9.075-4.776 15.431-15.801 15.431-28.644 0-17.218-11.42-31.176-25.508-31.176-1.362 0-2.698.134-4.002.385 1.748-3.858 2.725-8.117 2.725-12.599 0-17.369-14.571-31.449-32.545-31.449-8.333 0-15.931 3.03-21.688 8.007.001-.105.01-.208.01-.313 0-16.777-17.257-30.378-38.544-30.378-15.628 0-29.073 7.334-35.123 17.871-.5.397-1.007.813-1.514 1.227-4.767-12.964-18.879-22.364-35.551-22.364-20.588 0-37.278 14.332-37.278 32.011 0 .936.057 1.861.148 2.777-6.288-5.468-14.844-8.838-24.279-8.838-19.303 0-34.951 14.08-34.951 31.449 0 3.037.488 5.97 1.381 8.749-.14.629-.275 1.268-.406 1.919-2.546-1.093-5.287-1.72-8.161-1.72-12.989 0-23.518 12.203-23.518 27.256 0 7.679 2.75 14.605 7.159 19.558-16.99 1.59-30.336 17.439-30.336 36.769 0 18.196 11.828 33.306 27.387 36.344-14.601 11.844-2.564 47.883 29.893 35.019 1.325-5.86 12.389-14.37 21.54-12.915 9.913 4.333 10.556 17.007 10.992 22.233s1.742 14.808 3.92 12.195c10.017-40.939-2.307-87.976-2.307-87.976 11.453-1.307 24.522-11.841 15.372-32.664 14.372 2.613 44.423-3.92 43.117-35.277 13.066 9.146 23.518 26.131 58.796 15.679 2.613 18.292 25.696 34.842 51.827 19.163-6.097 18.292.814 33.998 17.421 43.553 0 20.034 4.77 77.106 11.192 87.426 7.1-1.193 18.628-42.98 11.82-51.497 8.078 3.288 28.412-12.411 22.299-28.09.05-.048.102-.104.152-.152.625.093 1.257.152 1.901.152 9.2 0 16.659-9.798 16.659-21.885 0-11.544-6.806-20.976-15.431-21.805z" fill="#240703"/><g><g><g><path d="m206.537 243.464c-12.376 4.395-47.751 32.584-47.753 32.586 9.518 30.118 37.183 95.556 97.915 95.556 60.894 0 90.847-64.008 100.364-94.017-13.25-12.929-28.943-23.629-48.067-33.454-36.017-13.27-90.083-5.066-102.459-.671z" fill="#f7f7f7"/></g></g><g fill="#f7f7f7"><path d="m363.614 199.893 1.834 2.396s-6.38 41.623-14.735 70.481c-5.279-2.65-7.091-5.844-7.091-5.844s15.269-62.617 19.992-67.033z"/><path d="m150.888 199.893-1.834 2.396s12.071 41.623 20.426 70.481c5.279-2.65 7.091-5.844 7.091-5.844s-20.959-62.617-25.683-67.033z"/></g></g><g><path d="m323.082 438.263h8.965v10.407h-8.965z" fill="#f4f4f4"/><path d="m361.736 475.819c0 3.998-3.241 7.24-7.24 7.24h-53.863c-3.998 0-7.24-3.241-7.24-7.24v-23.147c0-3.998 3.241-7.24 7.24-7.24h53.863c3.998 0 7.24 3.241 7.24 7.24z" fill="#fff"/><g fill="#bfbfbf"><path d="m301.127 453.195h15.902v21.719h-15.902z"/><path d="m320.007 453.195h32.552v4.666h-32.552z"/><path d="m320.007 461.721h32.552v4.666h-32.552z"/><path d="m320.007 470.248h21.282v4.666h-21.282z"/></g></g></g></g></svg>