<svg enable-background="new 0 0 512 512" height="512" viewBox="0 0 512 512" width="512" xmlns="http://www.w3.org/2000/svg"><g id="Layer_1"><g><path d="m260.165 28.12c-29.203-19.571-121.072-41.1-152.445 60.671-15.715 15.657-50.944 61.067-23.544 134.262-3.914 24.266-29.357 65.366 0 112.338-5.871 29.357-31.275 77.804 29.357 125.212 52.843 31.359 292.173 0 292.173 0 11.187-19.924 35.701-76.283 16.593-111.512 14.163-27.4 31.273-97.461 7.061-126.038 3.188-24.662 34.812-102.948-17.207-132.305-5.048-41.099-74.2-118.238-151.988-62.628z" fill="#42210b"/><g fill="#f3c690"><path d="m368.523 231.203 9.556-27.922s16.814-4.263 25.682 12.256-14.338 50.46-34.356 53.312c-5.549-12.921-.882-37.646-.882-37.646z"/><path d="m144.904 231.203-9.556-27.922s-16.814-4.263-25.682 12.256 14.338 50.46 34.356 53.312c5.549-12.921.882-37.646.882-37.646z"/><path d="m205.665 320.562h103.173v164.513h-103.173z"/></g><g><path d="m205.665 320.562v47.45c13.002 14.204 35.88 32.161 65.655 27.283 16.204-2.654 28.427-9.309 37.518-16.938v-57.796h-103.173z" fill="#eab57a"/></g><path d="m377.41 231.279c.042-1.166.064-2.333.064-3.499 0-72.511 23.168-154.321-117.768-155.523-.648-.012-3.149-.028-3.155-.028s-2.508.017-3.156.028c-140.935 1.202-117.768 83.012-117.768 155.523 0 1.167.022 2.333.064 3.499s10.588 51.725 19.317 65.216c8.728 13.491 49.697 77.383 98.71 77.383.045-.041 5.707-.044 5.755 0 49.013 0 91.785-66.923 100.514-80.414 8.728-13.491 17.513-62.185 17.513-62.185z" fill="#f3c690"/><g><path d="m421.545 464.777c-1.971-49.113-39.764-60.456-62.456-62.824-9.846-1.027-49.963-.365-49.963-.365s-38.442 83.486-51.046 83.486c-12.343 0-52.714-83.486-52.714-83.486s-38.448-.662-48.294.365c-22.692 2.368-60.485 13.711-62.457 62.824-1.696 12.247 0 29.744 0 29.744s55.236 16.906 159.632 17.47c.777.012 6.888.012 7.665 0 104.397-.564 159.632-17.47 159.632-17.47s1.697-17.496.001-29.744z" fill="#7dd5de"/></g><path d="m134.209 127.934s75.793 9.789 123.459-31.312c26.137 29.355 91.964 54.798 128.529 52.841-4.535-31.314-20.192-88.071-139.578-88.071s-112.41 66.542-112.41 66.542z" fill="#42210b"/><g><path d="m213.316 462.565c-.799 0-1.591-.333-2.153-.988-23.305-27.067-24.788-60.029-24.836-61.416-.059-1.569 1.162-2.886 2.73-2.945 1.669-.141 2.886 1.162 2.945 2.73.015.322 1.502 32.41 23.468 57.923 1.025 1.188.892 2.982-.3 4.007-.537.463-1.196.689-1.854.689z" fill="#172526"/><path d="m325.07 430.362c-.618 0-1.243-.152-1.82-.47-1.835-1.006-2.505-3.311-1.495-5.143 3.929-7.152 4.859-16.827 5.24-23.05.126-2.087 1.868-3.644 4.014-3.548 2.087.129 3.678 1.924 3.548 4.014-.059.98-.608 16.131-6.165 26.231-.688 1.256-1.986 1.966-3.322 1.966z" fill="#2e4241"/><path d="m350.173 496.662c-.625 0-1.251-.203-1.776-.622-1.225-.98-1.424-2.771-.444-3.996 1.406-3.097 5.379-37.882-5.254-51.915-4.898-6.463-11.373-10.278-18.728-11.029-8.191-.844-16.715 2.22-24.019 8.609-14.362 12.564-22.269 39.576-22.347 39.85-.433 1.502-2.005 2.372-3.518 1.942-1.506-.433-2.375-2.009-1.942-3.518.337-1.173 8.461-28.899 24.063-42.551 8.506-7.44 18.558-10.985 28.34-9.986 8.965.914 16.808 5.498 22.68 13.249 12.546 16.56 7.892 55.489 5.165 58.9-.563.7-1.388 1.067-2.22 1.067z" fill="#172526"/><circle cx="273.218" cy="480.324" fill="#697585" r="7.814"/><circle cx="349.305" cy="497.688" fill="#697585" r="7.814"/><path d="m343.247 441.08c-1.273 0-2.542-.511-3.474-1.517-13.301-14.374-28.237-6.87-28.869-6.541-2.305 1.191-5.169.311-6.382-1.994-1.214-2.301-.351-5.146 1.946-6.375 7.499-4.003 25.565-7.392 40.253 8.472 1.78 1.92 1.661 4.917-.255 6.693-.914.844-2.068 1.262-3.219 1.262z" fill="#2e4241"/><circle cx="218.999" cy="470.142" fill="#172526" r="23.678"/><circle cx="218.999" cy="470.142" fill="#697585" r="14.679"/></g></g></g></svg>