<svg enable-background="new 0 0 512 512" height="512" viewBox="0 0 512 512" width="512" xmlns="http://www.w3.org/2000/svg"><g id="Layer_1"><g><g fill="#f9d7aa"><path d="m367.905 232.689 9.688-27.828s16.81-4.168 25.578 12.372-14.581 50.306-34.583 53.047c-5.473-12.929-.683-37.591-.683-37.591z"/><path d="m144.636 231.513-9.395-27.928s-16.766-4.345-25.707 12.102 14.05 50.456 34.022 53.409c5.61-12.873 1.08-37.583 1.08-37.583z"/><path d="m204.493 321.322h103.013v128.077h-103.013z" transform="matrix(1 .005 -.005 1 2.034 -1.343)"/></g><g><path d="m204.831 321.051-.25 47.376c12.907 14.25 35.655 32.299 65.409 27.586 16.193-2.565 28.432-9.145 37.549-16.714l.304-57.706z" fill="#e8ac6b"/></g><path d="m376.777 232.812c.048-1.164.076-2.329.083-3.494.381-72.397 23.943-153.958-116.766-155.899-.647-.015-3.143-.045-3.15-.045s-2.504.003-3.151.012c-140.721.459-118.02 82.263-118.401 154.66-.006 1.165.01 2.33.045 3.494s10.3 51.7 18.943 65.215c8.644 13.516 49.212 77.523 98.148 77.781.045-.041 5.698-.013 5.745.03 48.936.258 91.993-66.335 100.779-79.759s17.812-61.996 17.812-61.996z" fill="#f9d7aa"/><path d="m418.356 465.96c-1.7-48.769-39.161-60.229-61.678-62.698-9.77-1.072-49.601-.624-49.601-.624-1.04 16.318-20.519 31.849-50.849 32.275-30.324-.746-52.229-20.181-52.162-32.818 0 0-38.168-.859-47.948.11-22.541 2.232-60.121 13.296-62.335 62.045-1.748 12.151-.156 29.53-.156 29.53s54.75 17.073 158.391 18.179c.771.016 6.838.048 7.609.04 103.648-.014 158.574-16.509 158.574-16.509s1.775-17.362.155-29.53z" fill="#65afba"/><path d="m342.539 312.432c4.163-33.037 53.441-108.408-19.286-173.733-5.862 9.771 0 31.266 0 31.266-27.357-9.771-72.94-10.959-89.889-52.761-17.587 31.266-28.48 50.758-66.44 56.669 5.862-15.633 0-41.036 0-41.036-11.725 27.357-9.771 31.266-17.587 44.944-3.908-9.771-7.833-19.541-7.833-19.541s-20.314 75.864 19.086 154.191c-40.565-27.175-62.135-58.44-64.051-122.926-1.916-64.485 27.395-134.558 86.018-116.132 1.954-24.564 28.448-56.322 109.43-46.059 107.935 13.68 177.979 171.595 50.552 285.118z" fill="#240703"/><g><path d="m254.915 446.619c45.212 0 64.194-24.095 65.45-44.865-7.435.062-12.952.153-12.952.153-.958 16.402-20.449 32.11-50.922 32.699-30.473-.589-52.586-20.001-52.586-32.699 0 0-5.877-.101-13.611-.163.035 15.454 17.84 44.875 64.621 44.875z" fill="#559da5"/></g><g><path d="m158.933 460.364h6.606v7.669h-6.606z" fill="#f4f4f4"/><path d="m187.417 488.039c0 2.946-2.389 5.335-5.335 5.335h-39.692c-2.946 0-5.335-2.389-5.335-5.335v-17.057c0-2.946 2.389-5.335 5.335-5.335h39.692c2.946 0 5.335 2.389 5.335 5.335z" fill="#fff"/><g fill="#bfbfbf"><path d="m142.755 471.368h11.719v16.005h-11.719z"/><path d="m156.667 471.368h23.988v3.438h-23.988z"/><path d="m156.667 477.651h23.988v3.438h-23.988z"/><path d="m156.667 483.934h15.683v3.438h-15.683z"/></g></g><g><path d="m208.352 462.83c-.798 0-1.588-.332-2.15-.986-23.269-27.025-24.75-59.935-24.798-61.321-.059-1.566 1.16-2.881 2.726-2.94 1.666-.14 2.881 1.16 2.94 2.726.015.321 1.5 32.36 23.431 57.833 1.023 1.186.89 2.977-.299 4.001-.535.462-1.192.687-1.85.687z" fill="#172526"/><path d="m319.933 430.677c-.617 0-1.241-.151-1.817-.469-1.832-1.005-2.501-3.306-1.492-5.135 3.923-7.141 4.851-16.801 5.232-23.014.126-2.083 1.865-3.639 4.008-3.543 2.083.129 3.672 1.921 3.543 4.008-.059.979-.607 16.106-6.155 26.191-.689 1.253-1.985 1.962-3.319 1.962z" fill="#2e4241"/><path d="m344.997 496.874c-.624 0-1.249-.203-1.773-.621-1.223-.979-1.422-2.767-.443-3.99 1.404-3.092 5.371-37.823-5.246-51.834-4.891-6.453-11.355-10.262-18.699-11.012-8.179-.842-16.69 2.216-23.982 8.596-14.34 12.545-22.234 39.515-22.312 39.788-.432 1.5-2.002 2.368-3.513 1.939-1.503-.432-2.372-2.006-1.939-3.513.336-1.171 8.448-28.854 24.026-42.485 8.493-7.429 18.529-10.968 28.296-9.97 8.951.912 16.782 5.489 22.644 13.228 12.526 16.534 7.879 55.403 5.157 58.809-.561.699-1.385 1.065-2.216 1.065z" fill="#172526"/><circle cx="268.162" cy="480.561" fill="#697585" r="7.802"/><circle cx="344.13" cy="497.898" fill="#697585" r="7.802"/><path d="m338.082 441.379c-1.271 0-2.538-.51-3.469-1.515-13.28-14.351-28.193-6.86-28.824-6.531-2.301 1.189-5.161.31-6.372-1.991-1.212-2.298-.351-5.138 1.943-6.365 7.488-3.997 25.526-7.381 40.191 8.459 1.777 1.917 1.659 4.909-.255 6.682-.913.843-2.065 1.261-3.214 1.261z" fill="#2e4241"/><circle cx="214.026" cy="470.395" fill="#172526" r="23.642"/><circle cx="214.026" cy="470.395" fill="#697585" r="14.657"/></g></g></g></svg>