<svg enable-background="new 0 0 512 512" height="512" viewBox="0 0 512 512" width="512" xmlns="http://www.w3.org/2000/svg"><g id="Layer_1"><g><path d="m336.433 241.985s99.343 34.915 99.343 140.176c-7.792 50.719-89.279 99.449-140.087 30.282s27.109-162.667 40.744-170.458z" fill="#240703"/><g fill="#e09f67"><path d="m367.2 229.388 9.511-27.79s16.735-4.243 25.561 12.198-14.27 50.222-34.194 53.06c-5.524-12.86-.878-37.468-.878-37.468z"/><path d="m144.636 229.388-9.511-27.79s-16.735-4.243-25.561 12.198 14.27 50.222 34.194 53.06c5.523-12.86.878-37.468.878-37.468z"/><path d="m205.11 318.325h102.686v127.671h-102.686z"/></g><g><path d="m205.11 318.325v47.227c12.941 14.137 35.711 32.009 65.345 27.155 16.127-2.642 28.293-9.265 37.341-16.858v-57.524z" fill="#ce8a57"/></g><path d="m376.044 229.464c.042-1.161.064-2.322.064-3.483 0-72.169 23.058-153.593-117.212-154.789-.645-.012-3.134-.028-3.14-.028s-2.496.016-3.141.028c-140.27 1.196-117.212 82.621-117.212 154.789 0 1.161.022 2.322.064 3.483s10.538 51.481 19.225 64.908 49.462 77.018 98.244 77.018c.045-.041 5.68-.043 5.727 0 48.782 0 91.352-66.607 100.039-80.034s17.43-61.892 17.43-61.892z" fill="#e09f67"/><path d="m419.67 465c-1.962-48.881-39.576-60.171-62.161-62.527-9.8-1.023-49.727-.363-49.727-.363-.956 16.364-20.402 32.036-50.805 32.623-30.403-.588-52.465-19.955-52.465-32.623 0 0-38.267-.659-48.066.363-22.585 2.357-60.2 13.646-62.162 62.527-1.688 12.19 0 29.604 0 29.604s54.975 16.826 158.879 17.387c.773.012 6.855.012 7.629 0 103.904-.561 158.879-17.387 158.879-17.387s1.687-17.414-.001-29.604z" fill="#15a8c2"/><path d="m135.799 201.107c10.664 9.213 11.309 22.924 9.55 32.875 9.929-19.267 2.289-36.798.265-46.538s1.872-38.958 25.247-42.854 38.96-5.844 47.725-27.271 34.088-11.687 49.671-9.74 39.54-11.687 39.54-11.687c-6.425 15.583-4.09 29.219 14.221 37.01 18.312 7.792 31.947 29.219 28.051 42.854s13.793 19.114 19.917 34.67 6.123 15.555 6.123 15.555-7.243-17.055 8.682-24.875c8.133-15.611 28.365-91.441-19.418-129.943-42.273-34.061-142.179-53.683-203.242-6.072-76.978 60.019-26.332 136.016-26.332 136.016z" fill="#240703"/><g><path d="m255.342 446.826c45.069 0 63.991-24.019 65.243-44.723-7.412.062-12.911.152-12.911.152-.955 16.35-20.384 32.008-50.76 32.595-30.376-.587-52.419-19.938-52.419-32.595 0 0-5.859-.1-13.568-.162.034 15.406 17.782 44.733 64.415 44.733z" fill="#1092a0"/></g><g><g><g><path d="m200.78 241.528c-13.355 4.476-51.527 33.185-51.529 33.186 10.271 30.673 40.123 97.316 105.657 97.316 65.709 0 98.03-65.187 108.299-95.749-14.298-13.167-31.232-24.065-51.868-34.07-38.863-13.514-97.204-5.159-110.559-.683z" fill="#f7f7f7"/></g></g><g fill="#f7f7f7"><path d="m373.349 206.22 1.979 2.441s-9.955 33.324-18.97 62.714c-5.697-2.698-7.652-5.951-7.652-5.951s19.545-54.707 24.643-59.204z"/><path d="m143.802 206.22-1.979 2.441s9.955 33.324 18.97 62.714c5.697-2.698 7.652-5.951 7.652-5.951s-19.546-54.707-24.643-59.204z"/></g></g><g><path d="m339.133 454.671h8.91v10.344h-8.91z" fill="#f4f4f4"/><path d="m377.553 491.999c0 3.974-3.222 7.196-7.196 7.196h-53.537c-3.974 0-7.196-3.222-7.196-7.196v-23.007c0-3.974 3.222-7.196 7.196-7.196h53.537c3.974 0 7.196 3.222 7.196 7.196z" fill="#fff"/><g fill="#bfbfbf"><path d="m317.311 469.512h15.806v21.588h-15.806z"/><path d="m336.076 469.512h32.355v4.637h-32.355z"/><path d="m336.076 477.987h32.355v4.637h-32.355z"/><path d="m336.076 486.463h21.154v4.637h-21.154z"/></g></g></g></g></svg>