<svg enable-background="new 0 0 512 512" height="512" viewBox="0 0 512 512" width="512" xmlns="http://www.w3.org/2000/svg"><g id="Layer_1"><g><path d="m257.995 123.674-112.508 31.106s-31.124 166.664 12.081 247.782c49.077 15.318 140.011 24.959 182.028-1.246 32.944-35.278 41.845-205.368 30.683-240.055-22.364-33.698-112.284-37.587-112.284-37.587z" fill="#2c180f"/><path d="m205.736 320.846h102.48v127.414h-102.48z" fill="#f9d7aa"/><g><path d="m205.736 320.846v47.132c12.915 14.109 35.639 31.944 65.214 27.1 16.095-2.636 28.236-9.246 37.266-16.824v-57.408z" fill="#e8ac6b"/></g><g fill="#f9d7aa"><path d="m354.963 229.975 8.405-27.701s14.612-4.176 22.245 12.262-12.645 50.071-30.033 52.834c-4.766-12.853-.617-37.395-.617-37.395z"/><path d="m160.854 229.204-8.185-27.767s-14.579-4.292-22.342 12.085 12.246 50.17 29.612 53.071c4.869-12.815.915-37.389.915-37.389z"/><path d="m362.677 230.081c.041-1.158.065-2.317.07-3.476.286-72.023 20.719-153.203-101.613-154.883-.562-.014-2.733-.039-2.739-.039s-2.177.008-2.739.017c-122.341.708-102.554 82.048-102.84 154.071-.005 1.159.01 2.317.042 3.476s8.987 51.413 16.51 64.844c7.523 13.43 42.833 77.034 85.378 77.203.039-.041 4.954-.024 4.995.02 42.545.169 79.937-66.156 87.567-79.526s15.447-61.706 15.447-61.706z"/></g><path d="m379.578 193.679-31.733-3.967c-2.596-8.886-10.804-15.403-20.517-15.403h-39.53c-11.556 0-20.978 9.221-21.35 20.689-9.969-2.214-18.238-1.295-23.407-.143-.445-11.401-9.835-20.546-21.342-20.546h-39.53c-9.713 0-17.921 6.517-20.517 15.403l-31.734 3.967c-1.774.221-3.035 1.842-2.812 3.617.205 1.639 1.6 2.838 3.211 2.838.134 0 .27-.008.406-.025l30.061-3.758v22.672c0 11.791 9.594 21.385 21.385 21.385h39.53c11.791 0 21.385-9.594 21.385-21.385v-17.512c4.373-1.142 12.843-2.485 23.329.14v17.372c0 11.791 9.594 21.385 21.385 21.385h39.53c11.791 0 21.385-9.594 21.385-21.385v-22.673l30.06 3.758c.137.018.272.025.406.025 1.61 0 3.006-1.199 3.211-2.838.223-1.775-1.036-3.395-2.812-3.616zm-145.566 25.344c0 6.789-5.523 12.313-12.313 12.313h-39.53c-6.789 0-12.313-5.523-12.313-12.313v-23.329c0-6.789 5.523-12.313 12.313-12.313h39.53c6.789 0 12.313 5.523 12.313 12.313zm105.629 0c0 6.789-5.523 12.313-12.313 12.313h-39.53c-6.789 0-12.313-5.523-12.313-12.313v-23.329c0-6.789 5.523-12.313 12.313-12.313h39.53c6.789 0 12.313 5.523 12.313 12.313z"/><path d="m151.818 169.762c37.303-9.716 114.143-11.66 156.398-66.092 22.815 31.104 54.15 34.992 55.979 103.031s-4.371 165.669-24.599 194.614c30.951 3.314 78.085-25.799 79.472-117.011s-2.868-182.578-95.024-219.514c-29.948-31.104-135.84-34.197-183.574 26.066s-57.398 145.008-39.365 222.766c18.032 66.094 56.464 88.939 56.464 88.939 10.167-20.901-33.94-154.354-5.751-232.799z" fill="#42210b"/><path d="m419.186 465.026c-1.958-48.783-39.497-60.05-62.037-62.402-9.78-1.021-49.627-.363-49.627-.363-.954 16.331-20.361 31.971-50.702 32.558-30.342-.586-52.359-19.915-52.359-32.558 0 0-38.19-.658-47.97.363-22.54 2.352-60.079 13.619-62.037 62.402-1.685 12.165 0 29.544 0 29.544s54.865 16.792 158.56 17.352c.772.012 6.841.012 7.613 0 103.695-.56 158.56-17.352 158.56-17.352s1.683-17.379-.001-29.544z" fill="#f7f7f7"/><g><path d="m307.322 402.33c-.954 16.331-20.361 25.091-50.702 25.677-30.342-.586-52.359-13.035-52.359-25.677 0 0-4.882-.084-11.59-.145l42.641 109.55c5.672.135 11.502.224 17.502.256.772.012 6.841.012 7.613 0 5.63-.031 11.106-.112 16.447-.232l42.176-109.579c-7.289.061-11.728.15-11.728.15z" fill="#65afba"/></g><path d="m335.815 402.082 4.597-.029-2.793 46.775-19.767-.223 15.495 14.232-40.06 48.346-4.376.167 39.349-47.877-17.655-18.402 23.34-1.347z" fill="#ccc"/><path d="m319.049 402.18h19.469s-1.271 16.66-2.619 44.594c-13.438 0-21.583 0-21.583 0l16.738 16.388-40.291 48.106-13.109.411-15.057.193z" fill="#f7f7f7"/><path d="m175.629 402.082-4.596-.029 2.792 46.775 19.768-.223-15.495 14.232 40.059 48.346 4.376.167-39.348-47.877 17.654-18.402-23.34-1.347z" fill="#ccc"/><path d="m192.395 402.18h-19.469s1.271 16.66 2.619 44.594h21.583l-16.738 16.388 40.291 48.106 13.109.411 15.057.193z" fill="#f7f7f7"/><g><path d="m210.533 463.368c-.794 0-1.58-.331-2.139-.981-23.148-26.886-24.622-59.625-24.67-61.003-.059-1.558 1.154-2.866 2.712-2.925 1.657-.14 2.866 1.154 2.925 2.712.015.32 1.492 32.192 23.31 57.534 1.018 1.18.886 2.962-.298 3.98-.532.459-1.186.683-1.84.683z" fill="#172526"/><path d="m321.536 431.382c-.614 0-1.235-.151-1.808-.467-1.823-1-2.488-3.289-1.485-5.108 3.903-7.104 4.826-16.714 5.205-22.895.125-2.073 1.856-3.62 3.987-3.524 2.073.129 3.653 1.911 3.524 3.987-.059.974-.604 16.023-6.123 26.055-.683 1.246-1.973 1.952-3.3 1.952z" fill="#2e4241"/><path d="m346.47 497.236c-.621 0-1.242-.202-1.764-.617-1.216-.974-1.415-2.753-.441-3.969 1.396-3.076 5.343-37.627-5.218-51.566-4.866-6.42-11.297-10.209-18.602-10.955-8.136-.838-16.603 2.205-23.857 8.551-14.266 12.48-22.119 39.31-22.196 39.582-.43 1.492-1.992 2.356-3.495 1.929-1.496-.43-2.359-1.995-1.929-3.495.334-1.165 8.404-28.705 23.902-42.265 8.449-7.39 18.433-10.911 28.15-9.919 8.904.908 16.695 5.461 22.527 13.16 12.462 16.449 7.839 55.116 5.13 58.504-.56.696-1.38 1.06-2.207 1.06z" fill="#172526"/><circle cx="270.032" cy="481.008" fill="#697585" r="7.761"/><circle cx="345.608" cy="498.255" fill="#697585" r="7.761"/><path d="m339.591 442.028c-1.264 0-2.525-.507-3.451-1.507-13.211-14.277-28.047-6.824-28.675-6.497-2.289 1.183-5.134.309-6.339-1.981-1.205-2.286-.349-5.112 1.933-6.332 7.449-3.976 25.394-7.342 39.983 8.415 1.768 1.907 1.65 4.884-.254 6.648-.908.839-2.054 1.254-3.197 1.254z" fill="#2e4241"/><circle cx="216.177" cy="470.895" fill="#172526" r="23.519"/><circle cx="216.177" cy="470.895" fill="#697585" r="14.581"/></g></g></g></svg>