<svg enable-background="new 0 0 512 512" height="512" viewBox="0 0 512 512" width="512" xmlns="http://www.w3.org/2000/svg"><g id="Layer_1"><g><path d="m254.655 45.643h-1.068c-50.776 0-141.481 2.596-141.557 153.159s12.917 172.699 12.917 172.699h62.319 133.71 62.319s12.993-22.136 12.917-172.699-90.781-153.159-141.557-153.159z" fill="#240703"/><g fill="#f9d7aa"><path d="m364.969 229.578 9.506-27.775s16.726-4.24 25.547 12.191c8.821 16.432-14.262 50.194-34.175 53.031-5.52-12.853-.878-37.447-.878-37.447z"/><path d="m142.528 229.578-9.506-27.775s-16.726-4.24-25.547 12.191 14.262 50.194 34.175 53.031c5.521-12.853.878-37.447.878-37.447z"/><path d="m202.969 318.465h102.63v127.601h-102.63z"/></g><g><path d="m202.969 318.465v47.201c12.934 14.129 35.691 31.991 65.309 27.14 16.119-2.64 28.278-9.26 37.321-16.848v-57.492h-102.63z" fill="#e8ac6b"/></g><path d="m373.809 229.653c.042-1.16.064-2.32.064-3.481 0-72.129 23.046-153.509-117.148-154.704-.644-.012-3.132-.028-3.138-.028-.007 0-2.494.016-3.139.028-140.193 1.196-117.148 82.575-117.148 154.704 0 1.16.022 2.321.064 3.481s10.532 51.453 19.215 64.872c8.682 13.42 49.435 76.976 98.19 76.976.045-.041 5.677-.043 5.724 0 48.755 0 91.302-66.571 99.984-79.99 8.682-13.42 17.42-61.858 17.42-61.858z" fill="#f9d7aa"/><path d="m131.89 201.311c29.387-10.297 128.134-34.958 189.086-107.644 2.545 31.151 14.865 47.796 54.133 68.677 6.82-33.632 2.213-94.636-119.439-105.02s-140.188 86.791-123.78 143.987z" fill="#240703"/><path d="m418.885 464.957c-1.961-48.854-39.555-60.138-62.127-62.493-9.794-1.022-49.7-.363-49.7-.363-.955 16.355-20.391 32.018-50.777 32.605-30.386-.587-52.436-19.945-52.436-32.605 0 0-38.246-.659-48.04.363-22.573 2.355-60.167 13.639-62.128 62.493-1.687 12.183 0 29.587 0 29.587s54.945 16.817 158.792 17.378c.773.012 6.851.012 7.624 0 103.847-.561 158.792-17.378 158.792-17.378s1.687-17.404 0-29.587z" fill="#f7f7f7"/><g><path d="m306.857 402.169c-.955 16.355-20.391 25.128-50.777 25.715-30.386-.587-52.436-13.054-52.436-25.715 0 0-4.889-.084-11.607-.145l42.703 109.71c5.681.135 11.519.224 17.528.257.773.012 6.851.012 7.624 0 5.638-.031 11.123-.112 16.471-.233l42.238-109.74c-7.298.063-11.744.151-11.744.151z" fill="#65afba"/></g><path d="m335.392 401.921 4.603-.029-2.797 46.843-19.796-.222 15.518 14.252-40.118 48.417-4.382.167 39.406-47.947-17.681-18.429 23.374-1.349z" fill="#ccc"/><path d="m318.602 402.019h19.497s-1.273 16.684-2.623 44.659c-13.457 0-21.615 0-21.615 0l16.762 16.412-40.35 48.177-13.128.412-15.079.193z" fill="#f7f7f7"/><path d="m174.971 401.921-4.603-.029 2.797 46.843 19.796-.222-15.517 14.252 40.118 48.417 4.382.167-39.406-47.947 17.68-18.429-23.374-1.349z" fill="#ccc"/><path d="m191.762 402.019h-19.497s1.273 16.684 2.623 44.659h21.615l-16.762 16.412 40.35 48.177 13.128.412 15.079.193z" fill="#f7f7f7"/><g><path d="m209.926 463.297c-.795 0-1.583-.331-2.142-.983-23.182-26.925-24.658-59.712-24.706-61.093-.059-1.56 1.156-2.871 2.716-2.929 1.66-.14 2.871 1.156 2.929 2.716.015.32 1.494 32.239 23.344 57.618 1.019 1.181.887 2.966-.298 3.986-.533.461-1.188.685-1.843.685z" fill="#172526"/><path d="m321.092 431.264c-.615 0-1.237-.151-1.811-.467-1.825-1.001-2.492-3.294-1.487-5.116 3.908-7.114 4.833-16.738 5.212-22.928.125-2.076 1.859-3.625 3.993-3.529 2.076.129 3.658 1.914 3.529 3.993-.059.975-.604 16.046-6.132 26.093-.684 1.247-1.975 1.954-3.304 1.954z" fill="#2e4241"/><path d="m346.063 497.215c-.622 0-1.244-.202-1.767-.618-1.218-.975-1.417-2.757-.442-3.975 1.398-3.08 5.351-37.682-5.226-51.642-4.873-6.429-11.313-10.224-18.63-10.971-8.148-.839-16.627 2.208-23.892 8.564-14.287 12.498-22.152 39.368-22.229 39.64-.431 1.494-1.995 2.359-3.5 1.932-1.498-.431-2.363-1.998-1.932-3.5.335-1.167 8.417-28.747 23.936-42.327 8.461-7.401 18.46-10.927 28.191-9.933 8.917.909 16.719 5.469 22.56 13.179 12.48 16.473 7.85 55.197 5.138 58.59-.559.696-1.379 1.061-2.207 1.061z" fill="#172526"/><circle cx="269.513" cy="480.962" fill="#697585" r="7.773"/><circle cx="345.199" cy="498.235" fill="#697585" r="7.773"/><path d="m339.173 441.926c-1.266 0-2.528-.508-3.456-1.509-13.231-14.298-28.088-6.834-28.717-6.507-2.293 1.185-5.141.309-6.348-1.984-1.207-2.289-.35-5.119 1.936-6.341 7.46-3.982 25.431-7.353 40.041 8.428 1.77 1.91 1.652 4.891-.254 6.658-.909.839-2.057 1.255-3.202 1.255z" fill="#2e4241"/><circle cx="215.579" cy="470.834" fill="#172526" r="23.554"/><circle cx="215.579" cy="470.834" fill="#697585" r="14.602"/></g></g></g></svg>