<svg enable-background="new 0 0 512 512" height="512" viewBox="0 0 512 512" width="512" xmlns="http://www.w3.org/2000/svg"><g id="Layer_1"><g><path d="m204.015 320.992h102.599v167.717h-102.599z" fill="#f9d7aa"/><g><path d="m204.015 320.992v47.186c12.93 14.125 35.68 31.981 65.289 27.131 16.114-2.639 28.269-9.257 37.309-16.843v-57.474z" fill="#e8ac6b"/></g><g fill="#f9d7aa"><path d="m353.449 229.63 8.305-27.766s14.612-4.239 22.319 12.188-12.46 50.179-29.857 53.015c-4.824-12.85-.767-37.437-.767-37.437z"/><path d="m159.113 229.63-8.305-27.766s-14.612-4.239-22.319 12.188 12.46 50.179 29.857 53.015c4.823-12.85.767-37.437.767-37.437z"/><path d="m361.172 229.706c.036-1.16.056-2.32.056-3.48 0-72.107 20.134-153.462-102.346-154.657-.563-.012-2.736-.028-2.742-.028s-2.179.016-2.742.028c-122.479 1.195-102.346 82.55-102.346 154.657 0 1.16.019 2.32.056 3.48s9.202 51.437 16.787 64.852c7.585 13.416 43.189 76.952 85.783 76.952.039-.041 4.959-.043 5.001 0 42.594 0 79.766-66.55 87.351-79.966s15.219-61.839 15.219-61.839h-.077z"/></g><g><path d="m418.835 465.04c-1.96-48.839-39.543-60.119-62.108-62.474-9.791-1.022-49.684-.363-49.684-.363s-38.228 83.021-50.761 83.021c-12.275 0-52.42-83.021-52.42-83.021s-38.234-.659-48.025.363c-22.566 2.355-60.148 13.635-62.109 62.474-1.686 12.179 0 29.578 0 29.578s54.928 16.811 158.743 17.372c.773.012 6.849.012 7.622 0 103.815-.561 158.743-17.372 158.743-17.372s1.685-17.398-.001-29.578z" fill="#15a8c2"/></g><path d="m148.768 201.791c17.347-23.37 53.678-55.809 71.844-105.116 18.166 31.141 99.362 86.127 141.159 104.697 6.763-29.439 12.501-64.473 7.037-93.019s-54.772-84.341-152.088-58.39-86.596 97.345-67.952 151.828z" fill="#240703"/><path d="m212.084 36.189c-.782 9.661 6.416 18.126 16.076 18.908l57.222 2.558c9.661.782 18.126-6.416 18.908-16.076l1.416-17.492c.782-9.661-6.416-18.126-16.076-18.908l-57.221-2.559c-9.661-.782-18.126 6.416-18.908 16.076z" fill="#240703"/><g><path d="m209.838 463.223c-.797 0-1.587-.331-2.148-.982-23.244-26.917-24.724-59.694-24.772-61.074-.059-1.56 1.159-2.87 2.723-2.929 1.664-.14 2.878 1.155 2.937 2.715.015.32 1.498 32.229 23.407 57.601 1.022 1.181.889 2.965-.299 3.985-.534.46-1.191.684-1.848.684z" fill="#172526"/><path d="m321.302 431.2c-.616 0-1.24-.151-1.816-.467-1.83-1.001-2.498-3.293-1.491-5.114 3.919-7.112 4.846-16.733 5.226-22.921.125-2.075 1.864-3.624 4.004-3.528 2.081.129 3.668 1.913 3.539 3.992-.059.975-.606 16.041-6.149 26.085-.686 1.246-1.981 1.953-3.313 1.953z" fill="#2e4241"/><path d="m346.34 497.13c-.624 0-1.247-.202-1.771-.618-1.221-.975-1.421-2.756-.443-3.973 1.402-3.079 5.365-37.671-5.24-51.626-4.886-6.427-11.344-10.221-18.68-10.968-8.17-.839-16.672 2.207-23.956 8.561-14.325 12.494-22.211 39.356-22.288 39.628-.432 1.494-2 2.358-3.509 1.932-1.502-.43-2.369-1.998-1.937-3.499.336-1.166 8.439-28.738 24.001-42.314 8.484-7.399 18.51-10.923 28.267-9.93 8.941.909 16.764 5.467 22.621 13.175 12.513 16.468 7.871 55.18 5.151 58.572-.563.696-1.386 1.06-2.216 1.06z" fill="#172526"/><ellipse cx="269.585" cy="480.883" fill="#697585" rx="7.794" ry="7.77"/><ellipse cx="345.474" cy="498.151" fill="#697585" rx="7.794" ry="7.77"/><path d="m339.432 441.858c-1.269 0-2.535-.508-3.465-1.508-13.266-14.293-28.163-6.832-28.794-6.505-2.299 1.185-5.155.309-6.366-1.983-1.21-2.288-.351-5.118 1.941-6.339 7.48-3.981 25.499-7.351 40.149 8.425 1.775 1.909 1.657 4.89-.255 6.656-.911.839-2.063 1.254-3.21 1.254z" fill="#2e4241"/><ellipse cx="215.506" cy="470.758" fill="#172526" rx="23.617" ry="23.547"/><ellipse cx="215.506" cy="470.758" fill="#697585" rx="14.641" ry="14.598"/></g></g></g></svg>